solid
 facet normal -7.071068e-001  7.071068e-001  0.000000e+000
   outer loop
     vertex  3.500000e+001  6.200000e+001  1.000000e+000
     vertex  3.500000e+001  6.200000e+001 -1.000000e+000
     vertex  0.000000e+000  2.700000e+001 -1.000000e+000
   endloop
 endfacet
 facet normal -7.071068e-001  7.071068e-001  0.000000e+000
   outer loop
     vertex  0.000000e+000  2.700000e+001  1.000000e+000
     vertex  3.500000e+001  6.200000e+001  1.000000e+000
     vertex  0.000000e+000  2.700000e+001 -1.000000e+000
   endloop
 endfacet
 facet normal  7.071068e-001  7.071068e-001  0.000000e+000
   outer loop
     vertex  6.200000e+001  3.500000e+001  1.000000e+000
     vertex  6.200000e+001  3.500000e+001 -1.000000e+000
     vertex  3.500000e+001  6.200000e+001  1.000000e+000
   endloop
 endfacet
 facet normal  7.071068e-001  7.071068e-001  0.000000e+000
   outer loop
     vertex  3.500000e+001  6.200000e+001  1.000000e+000
     vertex  6.200000e+001  3.500000e+001 -1.000000e+000
     vertex  3.500000e+001  6.200000e+001 -1.000000e+000
   endloop
 endfacet
 facet normal  4.856665e-002  9.988199e-001  0.000000e+000
   outer loop
     vertex  0.000000e+000  2.700000e+001  1.000000e+000
     vertex  0.000000e+000  2.700000e+001 -1.000000e+000
     vertex -1.558900e-001  2.700758e+001 -1.000000e+000
   endloop
 endfacet
 facet normal  4.856665e-002  9.988199e-001  0.000000e+000
   outer loop
     vertex -1.558900e-001  2.700758e+001  1.000000e+000
     vertex  0.000000e+000  2.700000e+001  1.000000e+000
     vertex -1.558900e-001  2.700758e+001 -1.000000e+000
   endloop
 endfacet
 facet normal  7.071068e-001 -7.071068e-001  0.000000e+000
   outer loop
     vertex  4.700000e+001  2.000000e+001  1.000000e+000
     vertex  4.700000e+001  2.000000e+001 -1.000000e+000
     vertex  6.200000e+001  3.500000e+001  1.000000e+000
   endloop
 endfacet
 facet normal  7.071068e-001 -7.071068e-001  0.000000e+000
   outer loop
     vertex  6.200000e+001  3.500000e+001  1.000000e+000
     vertex  4.700000e+001  2.000000e+001 -1.000000e+000
     vertex  6.200000e+001  3.500000e+001 -1.000000e+000
   endloop
 endfacet
 facet normal  1.460851e-001  9.892720e-001  0.000000e+000
   outer loop
     vertex -1.558900e-001  2.700758e+001  1.000000e+000
     vertex -1.558900e-001  2.700758e+001 -1.000000e+000
     vertex -3.067000e-001  2.702985e+001 -1.000000e+000
   endloop
 endfacet
 facet normal  1.460851e-001  9.892720e-001  0.000000e+000
   outer loop
     vertex -3.067000e-001  2.702985e+001  1.000000e+000
     vertex -1.558900e-001  2.700758e+001  1.000000e+000
     vertex -3.067000e-001  2.702985e+001 -1.000000e+000
   endloop
 endfacet
 facet normal  1.000000e+000 -0.000000e+000  0.000000e+000
   outer loop
     vertex  4.700000e+001 -2.800000e+001  1.000000e+000
     vertex  4.700000e+001 -2.800000e+001 -1.000000e+000
     vertex  4.700000e+001  2.000000e+001 -1.000000e+000
   endloop
 endfacet
 facet normal  1.000000e+000  0.000000e+000  0.000000e+000
   outer loop
     vertex  4.700000e+001  2.000000e+001  1.000000e+000
     vertex  4.700000e+001 -2.800000e+001  1.000000e+000
     vertex  4.700000e+001  2.000000e+001 -1.000000e+000
   endloop
 endfacet
 facet normal  2.897648e-001  9.570979e-001  0.000000e+000
   outer loop
     vertex -3.067000e-001  2.702985e+001  1.000000e+000
     vertex -3.067000e-001  2.702985e+001 -1.000000e+000
     vertex -5.903300e-001  2.711572e+001 -1.000000e+000
   endloop
 endfacet
 facet normal  2.897648e-001  9.570979e-001  0.000000e+000
   outer loop
     vertex -5.903300e-001  2.711572e+001  1.000000e+000
     vertex -3.067000e-001  2.702985e+001  1.000000e+000
     vertex -5.903300e-001  2.711572e+001 -1.000000e+000
   endloop
 endfacet
 facet normal  7.071068e-001 -7.071068e-001  0.000000e+000
   outer loop
     vertex  3.850000e+001 -3.650000e+001  1.000000e+000
     vertex  3.850000e+001 -3.650000e+001 -1.000000e+000
     vertex  4.700000e+001 -2.800000e+001 -1.000000e+000
   endloop
 endfacet
 facet normal  7.071068e-001 -7.071068e-001  0.000000e+000
   outer loop
     vertex  4.700000e+001 -2.800000e+001  1.000000e+000
     vertex  3.850000e+001 -3.650000e+001  1.000000e+000
     vertex  4.700000e+001 -2.800000e+001 -1.000000e+000
   endloop
 endfacet
 facet normal  4.716179e-001  8.818030e-001  0.000000e+000
   outer loop
     vertex -5.903300e-001  2.711572e+001  1.000000e+000
     vertex -5.903300e-001  2.711572e+001 -1.000000e+000
     vertex -8.454000e-001  2.725214e+001 -1.000000e+000
   endloop
 endfacet
 facet normal  4.716179e-001  8.818030e-001  0.000000e+000
   outer loop
     vertex -8.454000e-001  2.725214e+001  1.000000e+000
     vertex -5.903300e-001  2.711572e+001  1.000000e+000
     vertex -8.454000e-001  2.725214e+001 -1.000000e+000
   endloop
 endfacet
 facet normal  0.000000e+000 -1.000000e+000  0.000000e+000
   outer loop
     vertex  3.650000e+001 -3.650000e+001  1.000000e+000
     vertex  3.650000e+001 -3.650000e+001 -1.000000e+000
     vertex  3.850000e+001 -3.650000e+001 -1.000000e+000
   endloop
 endfacet
 facet normal -0.000000e+000 -1.000000e+000 -0.000000e+000
   outer loop
     vertex  3.850000e+001 -3.650000e+001  1.000000e+000
     vertex  3.650000e+001 -3.650000e+001  1.000000e+000
     vertex  3.850000e+001 -3.650000e+001 -1.000000e+000
   endloop
 endfacet
 facet normal  6.345433e-001  7.728873e-001  0.000000e+000
   outer loop
     vertex -1.066410e+000  2.743359e+001  1.000000e+000
     vertex -8.454000e-001  2.725214e+001  1.000000e+000
     vertex -8.454000e-001  2.725214e+001 -1.000000e+000
   endloop
 endfacet
 facet normal  6.345433e-001  7.728873e-001  0.000000e+000
   outer loop
     vertex -1.066410e+000  2.743359e+001  1.000000e+000
     vertex -8.454000e-001  2.725214e+001 -1.000000e+000
     vertex -1.066410e+000  2.743359e+001 -1.000000e+000
   endloop
 endfacet
 facet normal -7.071068e-001 -7.071068e-001 -0.000000e+000
   outer loop
     vertex  1.500000e+001 -1.500000e+001  1.000000e+000
     vertex  1.500000e+001 -1.500000e+001 -1.000000e+000
     vertex  3.650000e+001 -3.650000e+001 -1.000000e+000
   endloop
 endfacet
 facet normal -7.071068e-001 -7.071068e-001  0.000000e+000
   outer loop
     vertex  3.650000e+001 -3.650000e+001  1.000000e+000
     vertex  1.500000e+001 -1.500000e+001  1.000000e+000
     vertex  3.650000e+001 -3.650000e+001 -1.000000e+000
   endloop
 endfacet
 facet normal  7.728702e-001  6.345642e-001  0.000000e+000
   outer loop
     vertex -1.066410e+000  2.743359e+001  1.000000e+000
     vertex -1.066410e+000  2.743359e+001 -1.000000e+000
     vertex -1.247870e+000  2.765460e+001 -1.000000e+000
   endloop
 endfacet
 facet normal  7.728702e-001  6.345642e-001  0.000000e+000
   outer loop
     vertex -1.247870e+000  2.765460e+001  1.000000e+000
     vertex -1.066410e+000  2.743359e+001  1.000000e+000
     vertex -1.247870e+000  2.765460e+001 -1.000000e+000
   endloop
 endfacet
 facet normal -7.071068e-001  7.071068e-001  0.000000e+000
   outer loop
     vertex  2.850000e+001 -1.500000e+000  1.000000e+000
     vertex  2.850000e+001 -1.500000e+000 -1.000000e+000
     vertex  1.500000e+001 -1.500000e+001 -1.000000e+000
   endloop
 endfacet
 facet normal -7.071068e-001  7.071068e-001  0.000000e+000
   outer loop
     vertex  1.500000e+001 -1.500000e+001  1.000000e+000
     vertex  2.850000e+001 -1.500000e+000  1.000000e+000
     vertex  1.500000e+001 -1.500000e+001 -1.000000e+000
   endloop
 endfacet
 facet normal  8.818174e-001  4.715910e-001  0.000000e+000
   outer loop
     vertex -1.247870e+000  2.765460e+001  1.000000e+000
     vertex -1.247870e+000  2.765460e+001 -1.000000e+000
     vertex -1.384280e+000  2.790967e+001 -1.000000e+000
   endloop
 endfacet
 facet normal  8.818174e-001  4.715910e-001  0.000000e+000
   outer loop
     vertex -1.384280e+000  2.790967e+001  1.000000e+000
     vertex -1.247870e+000  2.765460e+001  1.000000e+000
     vertex -1.384280e+000  2.790967e+001 -1.000000e+000
   endloop
 endfacet
 facet normal -9.988199e-001 -4.856665e-002 -0.000000e+000
   outer loop
     vertex  2.849242e+001 -1.344110e+000  1.000000e+000
     vertex  2.849242e+001 -1.344110e+000 -1.000000e+000
     vertex  2.850000e+001 -1.500000e+000 -1.000000e+000
   endloop
 endfacet
 facet normal -9.988199e-001 -4.856665e-002  0.000000e+000
   outer loop
     vertex  2.850000e+001 -1.500000e+000  1.000000e+000
     vertex  2.849242e+001 -1.344110e+000  1.000000e+000
     vertex  2.850000e+001 -1.500000e+000 -1.000000e+000
   endloop
 endfacet
 facet normal  9.570979e-001  2.897648e-001  0.000000e+000
   outer loop
     vertex -1.470150e+000  2.819330e+001  1.000000e+000
     vertex -1.384280e+000  2.790967e+001  1.000000e+000
     vertex -1.384280e+000  2.790967e+001 -1.000000e+000
   endloop
 endfacet
 facet normal  9.570979e-001  2.897648e-001  0.000000e+000
   outer loop
     vertex -1.470150e+000  2.819330e+001  1.000000e+000
     vertex -1.384280e+000  2.790967e+001 -1.000000e+000
     vertex -1.470150e+000  2.819330e+001 -1.000000e+000
   endloop
 endfacet
 facet normal -9.892720e-001 -1.460851e-001 -0.000000e+000
   outer loop
     vertex  2.847015e+001 -1.193300e+000  1.000000e+000
     vertex  2.847015e+001 -1.193300e+000 -1.000000e+000
     vertex  2.849242e+001 -1.344110e+000 -1.000000e+000
   endloop
 endfacet
 facet normal -9.892720e-001 -1.460851e-001  0.000000e+000
   outer loop
     vertex  2.849242e+001 -1.344110e+000  1.000000e+000
     vertex  2.847015e+001 -1.193300e+000  1.000000e+000
     vertex  2.849242e+001 -1.344110e+000 -1.000000e+000
   endloop
 endfacet
 facet normal  9.892720e-001  1.460851e-001  0.000000e+000
   outer loop
     vertex -1.470150e+000  2.819330e+001  1.000000e+000
     vertex -1.470150e+000  2.819330e+001 -1.000000e+000
     vertex -1.492420e+000  2.834411e+001 -1.000000e+000
   endloop
 endfacet
 facet normal  9.892720e-001  1.460851e-001  0.000000e+000
   outer loop
     vertex -1.492420e+000  2.834411e+001  1.000000e+000
     vertex -1.470150e+000  2.819330e+001  1.000000e+000
     vertex -1.492420e+000  2.834411e+001 -1.000000e+000
   endloop
 endfacet
 facet normal -9.570979e-001 -2.897648e-001 -0.000000e+000
   outer loop
     vertex  2.838428e+001 -9.096700e-001  1.000000e+000
     vertex  2.838428e+001 -9.096700e-001 -1.000000e+000
     vertex  2.847015e+001 -1.193300e+000 -1.000000e+000
   endloop
 endfacet
 facet normal -9.570979e-001 -2.897648e-001  0.000000e+000
   outer loop
     vertex  2.847015e+001 -1.193300e+000  1.000000e+000
     vertex  2.838428e+001 -9.096700e-001  1.000000e+000
     vertex  2.847015e+001 -1.193300e+000 -1.000000e+000
   endloop
 endfacet
 facet normal  9.988199e-001  4.856665e-002  0.000000e+000
   outer loop
     vertex -1.492420e+000  2.834411e+001  1.000000e+000
     vertex -1.492420e+000  2.834411e+001 -1.000000e+000
     vertex -1.500000e+000  2.850000e+001 -1.000000e+000
   endloop
 endfacet
 facet normal  9.988199e-001  4.856665e-002  0.000000e+000
   outer loop
     vertex -1.500000e+000  2.850000e+001  1.000000e+000
     vertex -1.492420e+000  2.834411e+001  1.000000e+000
     vertex -1.500000e+000  2.850000e+001 -1.000000e+000
   endloop
 endfacet
 facet normal -8.818174e-001 -4.715910e-001 -0.000000e+000
   outer loop
     vertex  2.824787e+001 -6.546000e-001  1.000000e+000
     vertex  2.824787e+001 -6.546000e-001 -1.000000e+000
     vertex  2.838428e+001 -9.096700e-001 -1.000000e+000
   endloop
 endfacet
 facet normal -8.818174e-001 -4.715910e-001  0.000000e+000
   outer loop
     vertex  2.838428e+001 -9.096700e-001  1.000000e+000
     vertex  2.824787e+001 -6.546000e-001  1.000000e+000
     vertex  2.838428e+001 -9.096700e-001 -1.000000e+000
   endloop
 endfacet
 facet normal  7.071068e-001 -7.071068e-001  0.000000e+000
   outer loop
     vertex -1.500000e+000  2.850000e+001  1.000000e+000
     vertex -1.500000e+000  2.850000e+001 -1.000000e+000
     vertex  1.700000e+001  4.700000e+001  1.000000e+000
   endloop
 endfacet
 facet normal  7.071068e-001 -7.071068e-001  0.000000e+000
   outer loop
     vertex  1.700000e+001  4.700000e+001  1.000000e+000
     vertex -1.500000e+000  2.850000e+001 -1.000000e+000
     vertex  1.700000e+001  4.700000e+001 -1.000000e+000
   endloop
 endfacet
 facet normal -7.728702e-001 -6.345642e-001 -0.000000e+000
   outer loop
     vertex  2.806641e+001 -4.335900e-001  1.000000e+000
     vertex  2.806641e+001 -4.335900e-001 -1.000000e+000
     vertex  2.824787e+001 -6.546000e-001 -1.000000e+000
   endloop
 endfacet
 facet normal -7.728702e-001 -6.345642e-001  0.000000e+000
   outer loop
     vertex  2.824787e+001 -6.546000e-001  1.000000e+000
     vertex  2.806641e+001 -4.335900e-001  1.000000e+000
     vertex  2.824787e+001 -6.546000e-001 -1.000000e+000
   endloop
 endfacet
 facet normal  0.000000e+000  1.000000e+000  0.000000e+000
   outer loop
     vertex  1.700000e+001  4.700000e+001  1.000000e+000
     vertex  1.700000e+001  4.700000e+001 -1.000000e+000
     vertex -2.800000e+001  4.700000e+001 -1.000000e+000
   endloop
 endfacet
 facet normal -0.000000e+000  1.000000e+000  0.000000e+000
   outer loop
     vertex -2.800000e+001  4.700000e+001  1.000000e+000
     vertex  1.700000e+001  4.700000e+001  1.000000e+000
     vertex -2.800000e+001  4.700000e+001 -1.000000e+000
   endloop
 endfacet
 facet normal -6.345433e-001 -7.728873e-001 -0.000000e+000
   outer loop
     vertex  2.806641e+001 -4.335900e-001  1.000000e+000
     vertex  2.784540e+001 -2.521400e-001  1.000000e+000
     vertex  2.784540e+001 -2.521400e-001 -1.000000e+000
   endloop
 endfacet
 facet normal -6.345433e-001 -7.728873e-001  0.000000e+000
   outer loop
     vertex  2.806641e+001 -4.335900e-001  1.000000e+000
     vertex  2.784540e+001 -2.521400e-001 -1.000000e+000
     vertex  2.806641e+001 -4.335900e-001 -1.000000e+000
   endloop
 endfacet
 facet normal -7.071068e-001  7.071068e-001  0.000000e+000
   outer loop
     vertex -2.800000e+001  4.700000e+001  1.000000e+000
     vertex -2.800000e+001  4.700000e+001 -1.000000e+000
     vertex -3.650000e+001  3.850000e+001 -1.000000e+000
   endloop
 endfacet
 facet normal -7.071068e-001  7.071068e-001  0.000000e+000
   outer loop
     vertex -3.650000e+001  3.850000e+001  1.000000e+000
     vertex -2.800000e+001  4.700000e+001  1.000000e+000
     vertex -3.650000e+001  3.850000e+001 -1.000000e+000
   endloop
 endfacet
 facet normal -4.716179e-001 -8.818030e-001 -0.000000e+000
   outer loop
     vertex  2.759033e+001 -1.157200e-001  1.000000e+000
     vertex  2.759033e+001 -1.157200e-001 -1.000000e+000
     vertex  2.784540e+001 -2.521400e-001 -1.000000e+000
   endloop
 endfacet
 facet normal -4.716179e-001 -8.818030e-001  0.000000e+000
   outer loop
     vertex  2.784540e+001 -2.521400e-001  1.000000e+000
     vertex  2.759033e+001 -1.157200e-001  1.000000e+000
     vertex  2.784540e+001 -2.521400e-001 -1.000000e+000
   endloop
 endfacet
 facet normal -1.000000e+000 -0.000000e+000 -0.000000e+000
   outer loop
     vertex -3.650000e+001  3.850000e+001  1.000000e+000
     vertex -3.650000e+001  3.850000e+001 -1.000000e+000
     vertex -3.650000e+001  3.650000e+001 -1.000000e+000
   endloop
 endfacet
 facet normal -1.000000e+000  0.000000e+000 -0.000000e+000
   outer loop
     vertex -3.650000e+001  3.650000e+001  1.000000e+000
     vertex -3.650000e+001  3.850000e+001  1.000000e+000
     vertex -3.650000e+001  3.650000e+001 -1.000000e+000
   endloop
 endfacet
 facet normal -2.897648e-001 -9.570979e-001 -0.000000e+000
   outer loop
     vertex  2.730670e+001 -2.985000e-002  1.000000e+000
     vertex  2.730670e+001 -2.985000e-002 -1.000000e+000
     vertex  2.759033e+001 -1.157200e-001 -1.000000e+000
   endloop
 endfacet
 facet normal -2.897648e-001 -9.570979e-001  0.000000e+000
   outer loop
     vertex  2.759033e+001 -1.157200e-001  1.000000e+000
     vertex  2.730670e+001 -2.985000e-002  1.000000e+000
     vertex  2.759033e+001 -1.157200e-001 -1.000000e+000
   endloop
 endfacet
 facet normal -7.071068e-001 -7.071068e-001 -0.000000e+000
   outer loop
     vertex -3.650000e+001  3.650000e+001  1.000000e+000
     vertex -3.650000e+001  3.650000e+001 -1.000000e+000
     vertex  1.350000e+001 -1.350000e+001 -1.000000e+000
   endloop
 endfacet
 facet normal -7.071068e-001 -7.071068e-001  0.000000e+000
   outer loop
     vertex  1.350000e+001 -1.350000e+001  1.000000e+000
     vertex -3.650000e+001  3.650000e+001  1.000000e+000
     vertex  1.350000e+001 -1.350000e+001 -1.000000e+000
   endloop
 endfacet
 facet normal -1.460851e-001 -9.892720e-001 -0.000000e+000
   outer loop
     vertex  2.715589e+001 -7.580000e-003  1.000000e+000
     vertex  2.715589e+001 -7.580000e-003 -1.000000e+000
     vertex  2.730670e+001 -2.985000e-002 -1.000000e+000
   endloop
 endfacet
 facet normal -1.460851e-001 -9.892720e-001  0.000000e+000
   outer loop
     vertex  2.730670e+001 -2.985000e-002  1.000000e+000
     vertex  2.715589e+001 -7.580000e-003  1.000000e+000
     vertex  2.730670e+001 -2.985000e-002 -1.000000e+000
   endloop
 endfacet
 facet normal  7.071068e-001 -7.071068e-001  0.000000e+000
   outer loop
     vertex  1.350000e+001 -1.350000e+001  1.000000e+000
     vertex  1.350000e+001 -1.350000e+001 -1.000000e+000
     vertex  2.700000e+001  0.000000e+000 -1.000000e+000
   endloop
 endfacet
 facet normal  7.071068e-001 -7.071068e-001  0.000000e+000
   outer loop
     vertex  2.700000e+001  0.000000e+000  1.000000e+000
     vertex  1.350000e+001 -1.350000e+001  1.000000e+000
     vertex  2.700000e+001  0.000000e+000 -1.000000e+000
   endloop
 endfacet
 facet normal -4.856665e-002 -9.988199e-001 -0.000000e+000
   outer loop
     vertex  2.700000e+001  0.000000e+000  1.000000e+000
     vertex  2.700000e+001  0.000000e+000 -1.000000e+000
     vertex  2.715589e+001 -7.580000e-003 -1.000000e+000
   endloop
 endfacet
 facet normal -4.856665e-002 -9.988199e-001  0.000000e+000
   outer loop
     vertex  2.715589e+001 -7.580000e-003  1.000000e+000
     vertex  2.700000e+001  0.000000e+000  1.000000e+000
     vertex  2.715589e+001 -7.580000e-003 -1.000000e+000
   endloop
 endfacet
 facet normal -7.071068e-001 -7.071068e-001 -0.000000e+000
   outer loop
     vertex  0.000000e+000  2.400000e+001  1.000000e+000
     vertex  0.000000e+000  2.400000e+001 -1.000000e+000
     vertex  2.400000e+001  0.000000e+000  1.000000e+000
   endloop
 endfacet
 facet normal -7.071068e-001 -7.071068e-001  0.000000e+000
   outer loop
     vertex  2.400000e+001  0.000000e+000  1.000000e+000
     vertex  0.000000e+000  2.400000e+001 -1.000000e+000
     vertex  2.400000e+001  0.000000e+000 -1.000000e+000
   endloop
 endfacet
 facet normal  7.071068e-001 -7.071068e-001  0.000000e+000
   outer loop
     vertex -4.500000e+000  1.950000e+001  1.000000e+000
     vertex -4.500000e+000  1.950000e+001 -1.000000e+000
     vertex  0.000000e+000  2.400000e+001 -1.000000e+000
   endloop
 endfacet
 facet normal  7.071068e-001 -7.071068e-001  0.000000e+000
   outer loop
     vertex  0.000000e+000  2.400000e+001  1.000000e+000
     vertex -4.500000e+000  1.950000e+001  1.000000e+000
     vertex  0.000000e+000  2.400000e+001 -1.000000e+000
   endloop
 endfacet
 facet normal  7.071068e-001  7.071068e-001  0.000000e+000
   outer loop
     vertex  1.950000e+001 -4.500000e+000  1.000000e+000
     vertex  1.950000e+001 -4.500000e+000 -1.000000e+000
     vertex -4.500000e+000  1.950000e+001  1.000000e+000
   endloop
 endfacet
 facet normal  7.071068e-001  7.071068e-001  0.000000e+000
   outer loop
     vertex -4.500000e+000  1.950000e+001  1.000000e+000
     vertex  1.950000e+001 -4.500000e+000 -1.000000e+000
     vertex -4.500000e+000  1.950000e+001 -1.000000e+000
   endloop
 endfacet
 facet normal -7.071068e-001  7.071068e-001  0.000000e+000
   outer loop
     vertex  2.400000e+001  0.000000e+000  1.000000e+000
     vertex  2.400000e+001  0.000000e+000 -1.000000e+000
     vertex  1.950000e+001 -4.500000e+000 -1.000000e+000
   endloop
 endfacet
 facet normal -7.071068e-001  7.071068e-001  0.000000e+000
   outer loop
     vertex  1.950000e+001 -4.500000e+000  1.000000e+000
     vertex  2.400000e+001  0.000000e+000  1.000000e+000
     vertex  1.950000e+001 -4.500000e+000 -1.000000e+000
   endloop
 endfacet
 facet normal  7.071068e-001 -7.071068e-001  0.000000e+000
   outer loop
     vertex -1.050000e+001  1.350000e+001  1.000000e+000
     vertex -1.050000e+001  1.350000e+001 -1.000000e+000
     vertex -6.000000e+000  1.800000e+001 -1.000000e+000
   endloop
 endfacet
 facet normal  7.071068e-001 -7.071068e-001  0.000000e+000
   outer loop
     vertex -6.000000e+000  1.800000e+001  1.000000e+000
     vertex -1.050000e+001  1.350000e+001  1.000000e+000
     vertex -6.000000e+000  1.800000e+001 -1.000000e+000
   endloop
 endfacet
 facet normal  7.071068e-001  7.071068e-001  0.000000e+000
   outer loop
     vertex  1.350000e+001 -1.050000e+001  1.000000e+000
     vertex  1.350000e+001 -1.050000e+001 -1.000000e+000
     vertex -1.050000e+001  1.350000e+001  1.000000e+000
   endloop
 endfacet
 facet normal  7.071068e-001  7.071068e-001  0.000000e+000
   outer loop
     vertex -1.050000e+001  1.350000e+001  1.000000e+000
     vertex  1.350000e+001 -1.050000e+001 -1.000000e+000
     vertex -1.050000e+001  1.350000e+001 -1.000000e+000
   endloop
 endfacet
 facet normal -7.071068e-001  7.071068e-001  0.000000e+000
   outer loop
     vertex  1.800000e+001 -6.000000e+000  1.000000e+000
     vertex  1.800000e+001 -6.000000e+000 -1.000000e+000
     vertex  1.350000e+001 -1.050000e+001  1.000000e+000
   endloop
 endfacet
 facet normal -7.071068e-001  7.071068e-001  0.000000e+000
   outer loop
     vertex  1.350000e+001 -1.050000e+001  1.000000e+000
     vertex  1.800000e+001 -6.000000e+000 -1.000000e+000
     vertex  1.350000e+001 -1.050000e+001 -1.000000e+000
   endloop
 endfacet
 facet normal -7.071068e-001 -7.071068e-001 -0.000000e+000
   outer loop
     vertex -6.000000e+000  1.800000e+001  1.000000e+000
     vertex -6.000000e+000  1.800000e+001 -1.000000e+000
     vertex  1.800000e+001 -6.000000e+000  1.000000e+000
   endloop
 endfacet
 facet normal -7.071068e-001 -7.071068e-001  0.000000e+000
   outer loop
     vertex  1.800000e+001 -6.000000e+000  1.000000e+000
     vertex -6.000000e+000  1.800000e+001 -1.000000e+000
     vertex  1.800000e+001 -6.000000e+000 -1.000000e+000
   endloop
 endfacet
 facet normal  0.000000e+000 -1.000000e+000  0.000000e+000
   outer loop
     vertex -1.800000e+001  4.500000e+001  1.000000e+000
     vertex -1.800000e+001  4.500000e+001 -1.000000e+000
     vertex  1.200000e+001  4.500000e+001 -1.000000e+000
   endloop
 endfacet
 facet normal -0.000000e+000 -1.000000e+000 -0.000000e+000
   outer loop
     vertex  1.200000e+001  4.500000e+001  1.000000e+000
     vertex -1.800000e+001  4.500000e+001  1.000000e+000
     vertex  1.200000e+001  4.500000e+001 -1.000000e+000
   endloop
 endfacet
 facet normal  7.071068e-001  7.071068e-001  0.000000e+000
   outer loop
     vertex -3.000000e+000  3.000000e+001  1.000000e+000
     vertex -3.000000e+000  3.000000e+001 -1.000000e+000
     vertex -1.800000e+001  4.500000e+001  1.000000e+000
   endloop
 endfacet
 facet normal  7.071068e-001  7.071068e-001  0.000000e+000
   outer loop
     vertex -1.800000e+001  4.500000e+001  1.000000e+000
     vertex -3.000000e+000  3.000000e+001 -1.000000e+000
     vertex -1.800000e+001  4.500000e+001 -1.000000e+000
   endloop
 endfacet
 facet normal -7.071068e-001  7.071068e-001  0.000000e+000
   outer loop
     vertex  1.200000e+001  4.500000e+001  1.000000e+000
     vertex  1.200000e+001  4.500000e+001 -1.000000e+000
     vertex -3.000000e+000  3.000000e+001  1.000000e+000
   endloop
 endfacet
 facet normal -7.071068e-001  7.071068e-001  0.000000e+000
   outer loop
     vertex -3.000000e+000  3.000000e+001  1.000000e+000
     vertex  1.200000e+001  4.500000e+001 -1.000000e+000
     vertex -3.000000e+000  3.000000e+001 -1.000000e+000
   endloop
 endfacet
 facet normal  7.071068e-001 -7.071068e-001  0.000000e+000
   outer loop
     vertex -3.450000e+001  3.750000e+001  1.000000e+000
     vertex -3.450000e+001  3.750000e+001 -1.000000e+000
     vertex -3.000000e+001  4.200000e+001  1.000000e+000
   endloop
 endfacet
 facet normal  7.071068e-001 -7.071068e-001  0.000000e+000
   outer loop
     vertex -3.000000e+001  4.200000e+001  1.000000e+000
     vertex -3.450000e+001  3.750000e+001 -1.000000e+000
     vertex -3.000000e+001  4.200000e+001 -1.000000e+000
   endloop
 endfacet
 facet normal  7.071068e-001  7.071068e-001  0.000000e+000
   outer loop
     vertex -1.500000e+001  1.800000e+001  1.000000e+000
     vertex -1.500000e+001  1.800000e+001 -1.000000e+000
     vertex -3.450000e+001  3.750000e+001  1.000000e+000
   endloop
 endfacet
 facet normal  7.071068e-001  7.071068e-001  0.000000e+000
   outer loop
     vertex -3.450000e+001  3.750000e+001  1.000000e+000
     vertex -1.500000e+001  1.800000e+001 -1.000000e+000
     vertex -3.450000e+001  3.750000e+001 -1.000000e+000
   endloop
 endfacet
 facet normal -7.071068e-001  7.071068e-001  0.000000e+000
   outer loop
     vertex -1.050000e+001  2.250000e+001  1.000000e+000
     vertex -1.050000e+001  2.250000e+001 -1.000000e+000
     vertex -1.500000e+001  1.800000e+001 -1.000000e+000
   endloop
 endfacet
 facet normal -7.071068e-001  7.071068e-001  0.000000e+000
   outer loop
     vertex -1.500000e+001  1.800000e+001  1.000000e+000
     vertex -1.050000e+001  2.250000e+001  1.000000e+000
     vertex -1.500000e+001  1.800000e+001 -1.000000e+000
   endloop
 endfacet
 facet normal -7.071068e-001 -7.071068e-001 -0.000000e+000
   outer loop
     vertex -3.000000e+001  4.200000e+001  1.000000e+000
     vertex -3.000000e+001  4.200000e+001 -1.000000e+000
     vertex -1.050000e+001  2.250000e+001 -1.000000e+000
   endloop
 endfacet
 facet normal -7.071068e-001 -7.071068e-001  0.000000e+000
   outer loop
     vertex -1.050000e+001  2.250000e+001  1.000000e+000
     vertex -3.000000e+001  4.200000e+001  1.000000e+000
     vertex -1.050000e+001  2.250000e+001 -1.000000e+000
   endloop
 endfacet
 facet normal  7.071068e-001  7.071068e-001  0.000000e+000
   outer loop
     vertex -9.000000e+000  2.400000e+001  1.000000e+000
     vertex -9.000000e+000  2.400000e+001 -1.000000e+000
     vertex -2.850000e+001  4.350000e+001 -1.000000e+000
   endloop
 endfacet
 facet normal  7.071068e-001  7.071068e-001  0.000000e+000
   outer loop
     vertex -2.850000e+001  4.350000e+001  1.000000e+000
     vertex -9.000000e+000  2.400000e+001  1.000000e+000
     vertex -2.850000e+001  4.350000e+001 -1.000000e+000
   endloop
 endfacet
 facet normal -7.071068e-001  7.071068e-001  0.000000e+000
   outer loop
     vertex -4.500000e+000  2.850000e+001  1.000000e+000
     vertex -4.500000e+000  2.850000e+001 -1.000000e+000
     vertex -9.000000e+000  2.400000e+001 -1.000000e+000
   endloop
 endfacet
 facet normal -7.071068e-001  7.071068e-001  0.000000e+000
   outer loop
     vertex -9.000000e+000  2.400000e+001  1.000000e+000
     vertex -4.500000e+000  2.850000e+001  1.000000e+000
     vertex -9.000000e+000  2.400000e+001 -1.000000e+000
   endloop
 endfacet
 facet normal -7.071068e-001 -7.071068e-001 -0.000000e+000
   outer loop
     vertex -2.100000e+001  4.500000e+001  1.000000e+000
     vertex -2.100000e+001  4.500000e+001 -1.000000e+000
     vertex -4.500000e+000  2.850000e+001 -1.000000e+000
   endloop
 endfacet
 facet normal -7.071068e-001 -7.071068e-001  0.000000e+000
   outer loop
     vertex -4.500000e+000  2.850000e+001  1.000000e+000
     vertex -2.100000e+001  4.500000e+001  1.000000e+000
     vertex -4.500000e+000  2.850000e+001 -1.000000e+000
   endloop
 endfacet
 facet normal  0.000000e+000 -1.000000e+000  0.000000e+000
   outer loop
     vertex -2.700000e+001  4.500000e+001  1.000000e+000
     vertex -2.700000e+001  4.500000e+001 -1.000000e+000
     vertex -2.100000e+001  4.500000e+001  1.000000e+000
   endloop
 endfacet
 facet normal  0.000000e+000 -1.000000e+000 -0.000000e+000
   outer loop
     vertex -2.100000e+001  4.500000e+001  1.000000e+000
     vertex -2.700000e+001  4.500000e+001 -1.000000e+000
     vertex -2.100000e+001  4.500000e+001 -1.000000e+000
   endloop
 endfacet
 facet normal  7.071068e-001 -7.071068e-001  0.000000e+000
   outer loop
     vertex -2.850000e+001  4.350000e+001  1.000000e+000
     vertex -2.850000e+001  4.350000e+001 -1.000000e+000
     vertex -2.700000e+001  4.500000e+001 -1.000000e+000
   endloop
 endfacet
 facet normal  7.071068e-001 -7.071068e-001  0.000000e+000
   outer loop
     vertex -2.700000e+001  4.500000e+001  1.000000e+000
     vertex -2.850000e+001  4.350000e+001  1.000000e+000
     vertex -2.700000e+001  4.500000e+001 -1.000000e+000
   endloop
 endfacet
 facet normal -1.000000e+000 -0.000000e+000 -0.000000e+000
   outer loop
     vertex  4.500000e+001  1.200000e+001  1.000000e+000
     vertex  4.500000e+001  1.200000e+001 -1.000000e+000
     vertex  4.500000e+001 -1.800000e+001 -1.000000e+000
   endloop
 endfacet
 facet normal -1.000000e+000  0.000000e+000 -0.000000e+000
   outer loop
     vertex  4.500000e+001 -1.800000e+001  1.000000e+000
     vertex  4.500000e+001  1.200000e+001  1.000000e+000
     vertex  4.500000e+001 -1.800000e+001 -1.000000e+000
   endloop
 endfacet
 facet normal  7.071068e-001 -7.071068e-001  0.000000e+000
   outer loop
     vertex  3.000000e+001 -3.000000e+000  1.000000e+000
     vertex  3.000000e+001 -3.000000e+000 -1.000000e+000
     vertex  4.500000e+001  1.200000e+001  1.000000e+000
   endloop
 endfacet
 facet normal  7.071068e-001 -7.071068e-001  0.000000e+000
   outer loop
     vertex  4.500000e+001  1.200000e+001  1.000000e+000
     vertex  3.000000e+001 -3.000000e+000 -1.000000e+000
     vertex  4.500000e+001  1.200000e+001 -1.000000e+000
   endloop
 endfacet
 facet normal  7.071068e-001  7.071068e-001  0.000000e+000
   outer loop
     vertex  4.500000e+001 -1.800000e+001  1.000000e+000
     vertex  4.500000e+001 -1.800000e+001 -1.000000e+000
     vertex  3.000000e+001 -3.000000e+000  1.000000e+000
   endloop
 endfacet
 facet normal  7.071068e-001  7.071068e-001  0.000000e+000
   outer loop
     vertex  3.000000e+001 -3.000000e+000  1.000000e+000
     vertex  4.500000e+001 -1.800000e+001 -1.000000e+000
     vertex  3.000000e+001 -3.000000e+000 -1.000000e+000
   endloop
 endfacet
 facet normal  7.071068e-001  7.071068e-001  0.000000e+000
   outer loop
     vertex  2.550000e+001  1.500000e+000  1.000000e+000
     vertex  2.550000e+001  1.500000e+000 -1.000000e+000
     vertex  1.500000e+000  2.550000e+001  1.000000e+000
   endloop
 endfacet
 facet normal  7.071068e-001  7.071068e-001  0.000000e+000
   outer loop
     vertex  1.500000e+000  2.550000e+001  1.000000e+000
     vertex  2.550000e+001  1.500000e+000 -1.000000e+000
     vertex  1.500000e+000  2.550000e+001 -1.000000e+000
   endloop
 endfacet
 facet normal -7.071068e-001  7.071068e-001  0.000000e+000
   outer loop
     vertex  5.900000e+001  3.500000e+001  1.000000e+000
     vertex  5.900000e+001  3.500000e+001 -1.000000e+000
     vertex  2.550000e+001  1.500000e+000 -1.000000e+000
   endloop
 endfacet
 facet normal -7.071068e-001  7.071068e-001  0.000000e+000
   outer loop
     vertex  2.550000e+001  1.500000e+000  1.000000e+000
     vertex  5.900000e+001  3.500000e+001  1.000000e+000
     vertex  2.550000e+001  1.500000e+000 -1.000000e+000
   endloop
 endfacet
 facet normal -7.071068e-001 -7.071068e-001 -0.000000e+000
   outer loop
     vertex  3.500000e+001  5.900000e+001  1.000000e+000
     vertex  3.500000e+001  5.900000e+001 -1.000000e+000
     vertex  5.900000e+001  3.500000e+001  1.000000e+000
   endloop
 endfacet
 facet normal -7.071068e-001 -7.071068e-001  0.000000e+000
   outer loop
     vertex  5.900000e+001  3.500000e+001  1.000000e+000
     vertex  3.500000e+001  5.900000e+001 -1.000000e+000
     vertex  5.900000e+001  3.500000e+001 -1.000000e+000
   endloop
 endfacet
 facet normal  7.071068e-001 -7.071068e-001  0.000000e+000
   outer loop
     vertex  1.500000e+000  2.550000e+001  1.000000e+000
     vertex  1.500000e+000  2.550000e+001 -1.000000e+000
     vertex  3.500000e+001  5.900000e+001 -1.000000e+000
   endloop
 endfacet
 facet normal  7.071068e-001 -7.071068e-001  0.000000e+000
   outer loop
     vertex  3.500000e+001  5.900000e+001  1.000000e+000
     vertex  1.500000e+000  2.550000e+001  1.000000e+000
     vertex  3.500000e+001  5.900000e+001 -1.000000e+000
   endloop
 endfacet
 facet normal -7.071068e-001 -7.071068e-001 -0.000000e+000
   outer loop
     vertex  2.850000e+001 -4.500000e+000  1.000000e+000
     vertex  2.850000e+001 -4.500000e+000 -1.000000e+000
     vertex  4.500000e+001 -2.100000e+001 -1.000000e+000
   endloop
 endfacet
 facet normal -7.071068e-001 -7.071068e-001  0.000000e+000
   outer loop
     vertex  4.500000e+001 -2.100000e+001  1.000000e+000
     vertex  2.850000e+001 -4.500000e+000  1.000000e+000
     vertex  4.500000e+001 -2.100000e+001 -1.000000e+000
   endloop
 endfacet
 facet normal  7.071068e-001 -7.071068e-001  0.000000e+000
   outer loop
     vertex  2.400000e+001 -9.000000e+000  1.000000e+000
     vertex  2.400000e+001 -9.000000e+000 -1.000000e+000
     vertex  2.850000e+001 -4.500000e+000 -1.000000e+000
   endloop
 endfacet
 facet normal  7.071068e-001 -7.071068e-001  0.000000e+000
   outer loop
     vertex  2.850000e+001 -4.500000e+000  1.000000e+000
     vertex  2.400000e+001 -9.000000e+000  1.000000e+000
     vertex  2.850000e+001 -4.500000e+000 -1.000000e+000
   endloop
 endfacet
 facet normal  7.071068e-001  7.071068e-001  0.000000e+000
   outer loop
     vertex  4.350000e+001 -2.850000e+001  1.000000e+000
     vertex  4.350000e+001 -2.850000e+001 -1.000000e+000
     vertex  2.400000e+001 -9.000000e+000  1.000000e+000
   endloop
 endfacet
 facet normal  7.071068e-001  7.071068e-001  0.000000e+000
   outer loop
     vertex  2.400000e+001 -9.000000e+000  1.000000e+000
     vertex  4.350000e+001 -2.850000e+001 -1.000000e+000
     vertex  2.400000e+001 -9.000000e+000 -1.000000e+000
   endloop
 endfacet
 facet normal -7.071068e-001  7.071068e-001  0.000000e+000
   outer loop
     vertex  4.500000e+001 -2.700000e+001  1.000000e+000
     vertex  4.500000e+001 -2.700000e+001 -1.000000e+000
     vertex  4.350000e+001 -2.850000e+001 -1.000000e+000
   endloop
 endfacet
 facet normal -7.071068e-001  7.071068e-001  0.000000e+000
   outer loop
     vertex  4.350000e+001 -2.850000e+001  1.000000e+000
     vertex  4.500000e+001 -2.700000e+001  1.000000e+000
     vertex  4.350000e+001 -2.850000e+001 -1.000000e+000
   endloop
 endfacet
 facet normal -1.000000e+000 -0.000000e+000 -0.000000e+000
   outer loop
     vertex  4.500000e+001 -2.100000e+001  1.000000e+000
     vertex  4.500000e+001 -2.100000e+001 -1.000000e+000
     vertex  4.500000e+001 -2.700000e+001 -1.000000e+000
   endloop
 endfacet
 facet normal -1.000000e+000  0.000000e+000 -0.000000e+000
   outer loop
     vertex  4.500000e+001 -2.700000e+001  1.000000e+000
     vertex  4.500000e+001 -2.100000e+001  1.000000e+000
     vertex  4.500000e+001 -2.700000e+001 -1.000000e+000
   endloop
 endfacet
 facet normal  7.071068e-001  7.071068e-001  0.000000e+000
   outer loop
     vertex  3.750000e+001 -3.450000e+001  1.000000e+000
     vertex  3.750000e+001 -3.450000e+001 -1.000000e+000
     vertex  1.800000e+001 -1.500000e+001 -1.000000e+000
   endloop
 endfacet
 facet normal  7.071068e-001  7.071068e-001  0.000000e+000
   outer loop
     vertex  1.800000e+001 -1.500000e+001  1.000000e+000
     vertex  3.750000e+001 -3.450000e+001  1.000000e+000
     vertex  1.800000e+001 -1.500000e+001 -1.000000e+000
   endloop
 endfacet
 facet normal -7.071068e-001  7.071068e-001  0.000000e+000
   outer loop
     vertex  4.200000e+001 -3.000000e+001  1.000000e+000
     vertex  4.200000e+001 -3.000000e+001 -1.000000e+000
     vertex  3.750000e+001 -3.450000e+001 -1.000000e+000
   endloop
 endfacet
 facet normal -7.071068e-001  7.071068e-001  0.000000e+000
   outer loop
     vertex  3.750000e+001 -3.450000e+001  1.000000e+000
     vertex  4.200000e+001 -3.000000e+001  1.000000e+000
     vertex  3.750000e+001 -3.450000e+001 -1.000000e+000
   endloop
 endfacet
 facet normal -7.071068e-001 -7.071068e-001 -0.000000e+000
   outer loop
     vertex  2.250000e+001 -1.050000e+001  1.000000e+000
     vertex  2.250000e+001 -1.050000e+001 -1.000000e+000
     vertex  4.200000e+001 -3.000000e+001 -1.000000e+000
   endloop
 endfacet
 facet normal -7.071068e-001 -7.071068e-001  0.000000e+000
   outer loop
     vertex  4.200000e+001 -3.000000e+001  1.000000e+000
     vertex  2.250000e+001 -1.050000e+001  1.000000e+000
     vertex  4.200000e+001 -3.000000e+001 -1.000000e+000
   endloop
 endfacet
 facet normal  7.071068e-001 -7.071068e-001  0.000000e+000
   outer loop
     vertex  1.800000e+001 -1.500000e+001  1.000000e+000
     vertex  1.800000e+001 -1.500000e+001 -1.000000e+000
     vertex  2.250000e+001 -1.050000e+001 -1.000000e+000
   endloop
 endfacet
 facet normal  7.071068e-001 -7.071068e-001  0.000000e+000
   outer loop
     vertex  2.250000e+001 -1.050000e+001  1.000000e+000
     vertex  1.800000e+001 -1.500000e+001  1.000000e+000
     vertex  2.250000e+001 -1.050000e+001 -1.000000e+000
   endloop
 endfacet
 facet normal -0.000000e+000 -0.000000e+000 -1.000000e+000
   outer loop
     vertex -1.800000e+001  4.500000e+001 -1.000000e+000
     vertex -4.500000e+000  2.850000e+001 -1.000000e+000
     vertex -2.100000e+001  4.500000e+001 -1.000000e+000
   endloop
 endfacet
 facet normal -0.000000e+000  0.000000e+000 -1.000000e+000
   outer loop
     vertex  4.700000e+001  2.000000e+001 -1.000000e+000
     vertex  2.550000e+001  1.500000e+000 -1.000000e+000
     vertex  5.900000e+001  3.500000e+001 -1.000000e+000
   endloop
 endfacet
 facet normal -0.000000e+000 -0.000000e+000 -1.000000e+000
   outer loop
     vertex  4.500000e+001 -1.800000e+001 -1.000000e+000
     vertex  4.500000e+001 -2.100000e+001 -1.000000e+000
     vertex  2.850000e+001 -4.500000e+000 -1.000000e+000
   endloop
 endfacet
 facet normal  0.000000e+000  0.000000e+000 -1.000000e+000
   outer loop
     vertex  4.200000e+001 -3.000000e+001 -1.000000e+000
     vertex  2.400000e+001 -9.000000e+000 -1.000000e+000
     vertex  4.350000e+001 -2.850000e+001 -1.000000e+000
   endloop
 endfacet
 facet normal  0.000000e+000  0.000000e+000 -1.000000e+000
   outer loop
     vertex  0.000000e+000  2.400000e+001 -1.000000e+000
     vertex -8.454000e-001  2.725214e+001 -1.000000e+000
     vertex -5.903300e-001  2.711572e+001 -1.000000e+000
   endloop
 endfacet
 facet normal  0.000000e+000  0.000000e+000 -1.000000e+000
   outer loop
     vertex  2.250000e+001 -1.050000e+001 -1.000000e+000
     vertex  2.400000e+001 -9.000000e+000 -1.000000e+000
     vertex  4.200000e+001 -3.000000e+001 -1.000000e+000
   endloop
 endfacet
 facet normal  0.000000e+000  0.000000e+000 -1.000000e+000
   outer loop
     vertex -1.384280e+000  2.790967e+001 -1.000000e+000
     vertex -4.500000e+000  2.850000e+001 -1.000000e+000
     vertex -1.470150e+000  2.819330e+001 -1.000000e+000
   endloop
 endfacet
 facet normal  0.000000e+000  0.000000e+000 -1.000000e+000
   outer loop
     vertex  0.000000e+000  2.400000e+001 -1.000000e+000
     vertex -5.903300e-001  2.711572e+001 -1.000000e+000
     vertex -3.067000e-001  2.702985e+001 -1.000000e+000
   endloop
 endfacet
 facet normal  0.000000e+000  0.000000e+000 -1.000000e+000
   outer loop
     vertex  0.000000e+000  2.400000e+001 -1.000000e+000
     vertex -3.067000e-001  2.702985e+001 -1.000000e+000
     vertex -1.558900e-001  2.700758e+001 -1.000000e+000
   endloop
 endfacet
 facet normal  0.000000e+000  0.000000e+000 -1.000000e+000
   outer loop
     vertex -1.470150e+000  2.819330e+001 -1.000000e+000
     vertex -4.500000e+000  2.850000e+001 -1.000000e+000
     vertex -1.492420e+000  2.834411e+001 -1.000000e+000
   endloop
 endfacet
 facet normal  0.000000e+000  0.000000e+000 -1.000000e+000
   outer loop
     vertex -3.650000e+001  3.650000e+001 -1.000000e+000
     vertex -3.650000e+001  3.850000e+001 -1.000000e+000
     vertex -3.450000e+001  3.750000e+001 -1.000000e+000
   endloop
 endfacet
 facet normal  0.000000e+000  0.000000e+000 -1.000000e+000
   outer loop
     vertex -2.100000e+001  4.500000e+001 -1.000000e+000
     vertex -2.800000e+001  4.700000e+001 -1.000000e+000
     vertex -1.800000e+001  4.500000e+001 -1.000000e+000
   endloop
 endfacet
 facet normal  0.000000e+000  0.000000e+000 -1.000000e+000
   outer loop
     vertex -3.650000e+001  3.650000e+001 -1.000000e+000
     vertex -3.450000e+001  3.750000e+001 -1.000000e+000
     vertex -1.500000e+001  1.800000e+001 -1.000000e+000
   endloop
 endfacet
 facet normal  0.000000e+000  0.000000e+000 -1.000000e+000
   outer loop
     vertex  0.000000e+000  2.400000e+001 -1.000000e+000
     vertex -1.558900e-001  2.700758e+001 -1.000000e+000
     vertex  0.000000e+000  2.700000e+001 -1.000000e+000
   endloop
 endfacet
 facet normal  0.000000e+000  0.000000e+000 -1.000000e+000
   outer loop
     vertex -1.492420e+000  2.834411e+001 -1.000000e+000
     vertex -4.500000e+000  2.850000e+001 -1.000000e+000
     vertex -1.500000e+000  2.850000e+001 -1.000000e+000
   endloop
 endfacet
 facet normal  0.000000e+000  0.000000e+000 -1.000000e+000
   outer loop
     vertex  1.350000e+001 -1.350000e+001 -1.000000e+000
     vertex -1.050000e+001  1.350000e+001 -1.000000e+000
     vertex  1.350000e+001 -1.050000e+001 -1.000000e+000
   endloop
 endfacet
 facet normal  0.000000e+000  0.000000e+000 -1.000000e+000
   outer loop
     vertex  3.650000e+001 -3.650000e+001 -1.000000e+000
     vertex  1.500000e+001 -1.500000e+001 -1.000000e+000
     vertex  1.800000e+001 -1.500000e+001 -1.000000e+000
   endloop
 endfacet
 facet normal  0.000000e+000  0.000000e+000 -1.000000e+000
   outer loop
     vertex -1.500000e+000  2.850000e+001 -1.000000e+000
     vertex -4.500000e+000  2.850000e+001 -1.000000e+000
     vertex -3.000000e+000  3.000000e+001 -1.000000e+000
   endloop
 endfacet
 facet normal  0.000000e+000  0.000000e+000 -1.000000e+000
   outer loop
     vertex -4.500000e+000  2.850000e+001 -1.000000e+000
     vertex -1.800000e+001  4.500000e+001 -1.000000e+000
     vertex -3.000000e+000  3.000000e+001 -1.000000e+000
   endloop
 endfacet
 facet normal  0.000000e+000  0.000000e+000 -1.000000e+000
   outer loop
     vertex  2.400000e+001  0.000000e+000 -1.000000e+000
     vertex  0.000000e+000  2.400000e+001 -1.000000e+000
     vertex  1.500000e+000  2.550000e+001 -1.000000e+000
   endloop
 endfacet
 facet normal  0.000000e+000  0.000000e+000 -1.000000e+000
   outer loop
     vertex  0.000000e+000  2.400000e+001 -1.000000e+000
     vertex  0.000000e+000  2.700000e+001 -1.000000e+000
     vertex  1.500000e+000  2.550000e+001 -1.000000e+000
   endloop
 endfacet
 facet normal  0.000000e+000  0.000000e+000 -1.000000e+000
   outer loop
     vertex  3.850000e+001 -3.650000e+001 -1.000000e+000
     vertex  3.650000e+001 -3.650000e+001 -1.000000e+000
     vertex  3.750000e+001 -3.450000e+001 -1.000000e+000
   endloop
 endfacet
 facet normal  0.000000e+000  0.000000e+000 -1.000000e+000
   outer loop
     vertex  3.650000e+001 -3.650000e+001 -1.000000e+000
     vertex  1.800000e+001 -1.500000e+001 -1.000000e+000
     vertex  3.750000e+001 -3.450000e+001 -1.000000e+000
   endloop
 endfacet
 facet normal  0.000000e+000  0.000000e+000 -1.000000e+000
   outer loop
     vertex -3.450000e+001  3.750000e+001 -1.000000e+000
     vertex -3.650000e+001  3.850000e+001 -1.000000e+000
     vertex -3.000000e+001  4.200000e+001 -1.000000e+000
   endloop
 endfacet
 facet normal  0.000000e+000  0.000000e+000 -1.000000e+000
   outer loop
     vertex  2.400000e+001  0.000000e+000 -1.000000e+000
     vertex  1.500000e+000  2.550000e+001 -1.000000e+000
     vertex  2.550000e+001  1.500000e+000 -1.000000e+000
   endloop
 endfacet
 facet normal  0.000000e+000  0.000000e+000 -1.000000e+000
   outer loop
     vertex  2.700000e+001  0.000000e+000 -1.000000e+000
     vertex  2.400000e+001  0.000000e+000 -1.000000e+000
     vertex  2.550000e+001  1.500000e+000 -1.000000e+000
   endloop
 endfacet
 facet normal -0.000000e+000  0.000000e+000 -1.000000e+000
   outer loop
     vertex -6.000000e+000  1.800000e+001 -1.000000e+000
     vertex -1.050000e+001  1.350000e+001 -1.000000e+000
     vertex -1.050000e+001  2.250000e+001 -1.000000e+000
   endloop
 endfacet
 facet normal -0.000000e+000  0.000000e+000 -1.000000e+000
   outer loop
     vertex  3.000000e+001 -3.000000e+000 -1.000000e+000
     vertex  2.850000e+001 -4.500000e+000 -1.000000e+000
     vertex  2.850000e+001 -1.500000e+000 -1.000000e+000
   endloop
 endfacet
 facet normal  0.000000e+000  0.000000e+000 -1.000000e+000
   outer loop
     vertex  4.700000e+001 -2.800000e+001 -1.000000e+000
     vertex  4.500000e+001 -2.100000e+001 -1.000000e+000
     vertex  4.500000e+001 -1.800000e+001 -1.000000e+000
   endloop
 endfacet
 facet normal  0.000000e+000  0.000000e+000 -1.000000e+000
   outer loop
     vertex -1.050000e+001  1.350000e+001 -1.000000e+000
     vertex -1.500000e+001  1.800000e+001 -1.000000e+000
     vertex -1.050000e+001  2.250000e+001 -1.000000e+000
   endloop
 endfacet
 facet normal  0.000000e+000  0.000000e+000 -1.000000e+000
   outer loop
     vertex  2.850000e+001 -4.500000e+000 -1.000000e+000
     vertex  3.000000e+001 -3.000000e+000 -1.000000e+000
     vertex  4.500000e+001 -1.800000e+001 -1.000000e+000
   endloop
 endfacet
 facet normal  0.000000e+000  0.000000e+000 -1.000000e+000
   outer loop
     vertex  2.700000e+001  0.000000e+000 -1.000000e+000
     vertex  2.550000e+001  1.500000e+000 -1.000000e+000
     vertex  2.715589e+001 -7.580000e-003 -1.000000e+000
   endloop
 endfacet
 facet normal  0.000000e+000  0.000000e+000 -1.000000e+000
   outer loop
     vertex  3.850000e+001 -3.650000e+001 -1.000000e+000
     vertex  3.750000e+001 -3.450000e+001 -1.000000e+000
     vertex  4.200000e+001 -3.000000e+001 -1.000000e+000
   endloop
 endfacet
 facet normal  0.000000e+000  0.000000e+000 -1.000000e+000
   outer loop
     vertex  3.000000e+001 -3.000000e+000 -1.000000e+000
     vertex  2.850000e+001 -1.500000e+000 -1.000000e+000
     vertex  2.849242e+001 -1.344110e+000 -1.000000e+000
   endloop
 endfacet
 facet normal  0.000000e+000  0.000000e+000 -1.000000e+000
   outer loop
     vertex  3.000000e+001 -3.000000e+000 -1.000000e+000
     vertex  2.849242e+001 -1.344110e+000 -1.000000e+000
     vertex  2.847015e+001 -1.193300e+000 -1.000000e+000
   endloop
 endfacet
 facet normal  0.000000e+000  0.000000e+000 -1.000000e+000
   outer loop
     vertex  2.715589e+001 -7.580000e-003 -1.000000e+000
     vertex  2.550000e+001  1.500000e+000 -1.000000e+000
     vertex  2.730670e+001 -2.985000e-002 -1.000000e+000
   endloop
 endfacet
 facet normal  0.000000e+000  0.000000e+000 -1.000000e+000
   outer loop
     vertex -6.000000e+000  1.800000e+001 -1.000000e+000
     vertex -1.050000e+001  2.250000e+001 -1.000000e+000
     vertex -9.000000e+000  2.400000e+001 -1.000000e+000
   endloop
 endfacet
 facet normal  0.000000e+000  0.000000e+000 -1.000000e+000
   outer loop
     vertex  2.730670e+001 -2.985000e-002 -1.000000e+000
     vertex  2.550000e+001  1.500000e+000 -1.000000e+000
     vertex  2.759033e+001 -1.157200e-001 -1.000000e+000
   endloop
 endfacet
 facet normal -0.000000e+000  0.000000e+000 -1.000000e+000
   outer loop
     vertex -4.500000e+000  1.950000e+001 -1.000000e+000
     vertex -6.000000e+000  1.800000e+001 -1.000000e+000
     vertex -9.000000e+000  2.400000e+001 -1.000000e+000
   endloop
 endfacet
 facet normal  0.000000e+000  0.000000e+000 -1.000000e+000
   outer loop
     vertex -6.000000e+000  1.800000e+001 -1.000000e+000
     vertex -4.500000e+000  1.950000e+001 -1.000000e+000
     vertex  1.950000e+001 -4.500000e+000 -1.000000e+000
   endloop
 endfacet
 facet normal  0.000000e+000  0.000000e+000 -1.000000e+000
   outer loop
     vertex  1.800000e+001 -6.000000e+000 -1.000000e+000
     vertex -6.000000e+000  1.800000e+001 -1.000000e+000
     vertex  1.950000e+001 -4.500000e+000 -1.000000e+000
   endloop
 endfacet
 facet normal  0.000000e+000  0.000000e+000 -1.000000e+000
   outer loop
     vertex  3.000000e+001 -3.000000e+000 -1.000000e+000
     vertex  2.847015e+001 -1.193300e+000 -1.000000e+000
     vertex  2.838428e+001 -9.096700e-001 -1.000000e+000
   endloop
 endfacet
 facet normal  0.000000e+000  0.000000e+000 -1.000000e+000
   outer loop
     vertex  2.759033e+001 -1.157200e-001 -1.000000e+000
     vertex  2.550000e+001  1.500000e+000 -1.000000e+000
     vertex  2.784540e+001 -2.521400e-001 -1.000000e+000
   endloop
 endfacet
 facet normal  0.000000e+000  0.000000e+000 -1.000000e+000
   outer loop
     vertex  3.000000e+001 -3.000000e+000 -1.000000e+000
     vertex  2.838428e+001 -9.096700e-001 -1.000000e+000
     vertex  2.824787e+001 -6.546000e-001 -1.000000e+000
   endloop
 endfacet
 facet normal  0.000000e+000  0.000000e+000 -1.000000e+000
   outer loop
     vertex -1.500000e+000  2.850000e+001 -1.000000e+000
     vertex -3.000000e+000  3.000000e+001 -1.000000e+000
     vertex  1.200000e+001  4.500000e+001 -1.000000e+000
   endloop
 endfacet
 facet normal  0.000000e+000  0.000000e+000 -1.000000e+000
   outer loop
     vertex  2.784540e+001 -2.521400e-001 -1.000000e+000
     vertex  2.550000e+001  1.500000e+000 -1.000000e+000
     vertex  4.500000e+001  1.200000e+001 -1.000000e+000
   endloop
 endfacet
 facet normal -0.000000e+000  0.000000e+000 -1.000000e+000
   outer loop
     vertex -2.850000e+001  4.350000e+001 -1.000000e+000
     vertex -3.000000e+001  4.200000e+001 -1.000000e+000
     vertex -2.800000e+001  4.700000e+001 -1.000000e+000
   endloop
 endfacet
 facet normal  0.000000e+000  0.000000e+000 -1.000000e+000
   outer loop
     vertex  3.000000e+001 -3.000000e+000 -1.000000e+000
     vertex  2.824787e+001 -6.546000e-001 -1.000000e+000
     vertex  4.500000e+001  1.200000e+001 -1.000000e+000
   endloop
 endfacet
 facet normal  0.000000e+000  0.000000e+000 -1.000000e+000
   outer loop
     vertex  2.824787e+001 -6.546000e-001 -1.000000e+000
     vertex  2.806641e+001 -4.335900e-001 -1.000000e+000
     vertex  4.500000e+001  1.200000e+001 -1.000000e+000
   endloop
 endfacet
 facet normal -0.000000e+000  0.000000e+000 -1.000000e+000
   outer loop
     vertex -2.700000e+001  4.500000e+001 -1.000000e+000
     vertex -2.850000e+001  4.350000e+001 -1.000000e+000
     vertex -2.800000e+001  4.700000e+001 -1.000000e+000
   endloop
 endfacet
 facet normal  0.000000e+000  0.000000e+000 -1.000000e+000
   outer loop
     vertex  2.806641e+001 -4.335900e-001 -1.000000e+000
     vertex  2.784540e+001 -2.521400e-001 -1.000000e+000
     vertex  4.500000e+001  1.200000e+001 -1.000000e+000
   endloop
 endfacet
 facet normal -0.000000e+000  0.000000e+000 -1.000000e+000
   outer loop
     vertex -3.000000e+001  4.200000e+001 -1.000000e+000
     vertex -3.650000e+001  3.850000e+001 -1.000000e+000
     vertex -2.800000e+001  4.700000e+001 -1.000000e+000
   endloop
 endfacet
 facet normal  0.000000e+000  0.000000e+000 -1.000000e+000
   outer loop
     vertex  3.850000e+001 -3.650000e+001 -1.000000e+000
     vertex  4.200000e+001 -3.000000e+001 -1.000000e+000
     vertex  4.700000e+001 -2.800000e+001 -1.000000e+000
   endloop
 endfacet
 facet normal  0.000000e+000  0.000000e+000 -1.000000e+000
   outer loop
     vertex  4.350000e+001 -2.850000e+001 -1.000000e+000
     vertex  4.500000e+001 -2.700000e+001 -1.000000e+000
     vertex  4.700000e+001 -2.800000e+001 -1.000000e+000
   endloop
 endfacet
 facet normal  0.000000e+000  0.000000e+000 -1.000000e+000
   outer loop
     vertex  4.200000e+001 -3.000000e+001 -1.000000e+000
     vertex  4.350000e+001 -2.850000e+001 -1.000000e+000
     vertex  4.700000e+001 -2.800000e+001 -1.000000e+000
   endloop
 endfacet
 facet normal  0.000000e+000  0.000000e+000 -1.000000e+000
   outer loop
     vertex -2.700000e+001  4.500000e+001 -1.000000e+000
     vertex -2.800000e+001  4.700000e+001 -1.000000e+000
     vertex -2.100000e+001  4.500000e+001 -1.000000e+000
   endloop
 endfacet
 facet normal -0.000000e+000  0.000000e+000 -1.000000e+000
   outer loop
     vertex  4.500000e+001  1.200000e+001 -1.000000e+000
     vertex  2.550000e+001  1.500000e+000 -1.000000e+000
     vertex  4.700000e+001  2.000000e+001 -1.000000e+000
   endloop
 endfacet
 facet normal  0.000000e+000  0.000000e+000 -1.000000e+000
   outer loop
     vertex -4.500000e+000  1.950000e+001 -1.000000e+000
     vertex -9.000000e+000  2.400000e+001 -1.000000e+000
     vertex -4.500000e+000  2.850000e+001 -1.000000e+000
   endloop
 endfacet
 facet normal -0.000000e+000  0.000000e+000 -1.000000e+000
   outer loop
     vertex  0.000000e+000  2.400000e+001 -1.000000e+000
     vertex -4.500000e+000  1.950000e+001 -1.000000e+000
     vertex -4.500000e+000  2.850000e+001 -1.000000e+000
   endloop
 endfacet
 facet normal  0.000000e+000  0.000000e+000 -1.000000e+000
   outer loop
     vertex  4.700000e+001  2.000000e+001 -1.000000e+000
     vertex  5.900000e+001  3.500000e+001 -1.000000e+000
     vertex  6.200000e+001  3.500000e+001 -1.000000e+000
   endloop
 endfacet
 facet normal  0.000000e+000  0.000000e+000 -1.000000e+000
   outer loop
     vertex  3.500000e+001  5.900000e+001 -1.000000e+000
     vertex  3.500000e+001  6.200000e+001 -1.000000e+000
     vertex  6.200000e+001  3.500000e+001 -1.000000e+000
   endloop
 endfacet
 facet normal  0.000000e+000  0.000000e+000 -1.000000e+000
   outer loop
     vertex  4.700000e+001 -2.800000e+001 -1.000000e+000
     vertex  4.500000e+001 -2.700000e+001 -1.000000e+000
     vertex  4.500000e+001 -2.100000e+001 -1.000000e+000
   endloop
 endfacet
 facet normal  0.000000e+000  0.000000e+000 -1.000000e+000
   outer loop
     vertex  5.900000e+001  3.500000e+001 -1.000000e+000
     vertex  3.500000e+001  5.900000e+001 -1.000000e+000
     vertex  6.200000e+001  3.500000e+001 -1.000000e+000
   endloop
 endfacet
 facet normal -0.000000e+000  0.000000e+000 -1.000000e+000
   outer loop
     vertex  3.500000e+001  5.900000e+001 -1.000000e+000
     vertex  0.000000e+000  2.700000e+001 -1.000000e+000
     vertex  3.500000e+001  6.200000e+001 -1.000000e+000
   endloop
 endfacet
 facet normal  0.000000e+000  0.000000e+000 -1.000000e+000
   outer loop
     vertex  1.500000e+000  2.550000e+001 -1.000000e+000
     vertex  0.000000e+000  2.700000e+001 -1.000000e+000
     vertex  3.500000e+001  5.900000e+001 -1.000000e+000
   endloop
 endfacet
 facet normal  0.000000e+000  0.000000e+000 -1.000000e+000
   outer loop
     vertex  4.500000e+001  1.200000e+001 -1.000000e+000
     vertex  4.700000e+001  2.000000e+001 -1.000000e+000
     vertex  4.700000e+001 -2.800000e+001 -1.000000e+000
   endloop
 endfacet
 facet normal  0.000000e+000  0.000000e+000 -1.000000e+000
   outer loop
     vertex  4.500000e+001 -1.800000e+001 -1.000000e+000
     vertex  4.500000e+001  1.200000e+001 -1.000000e+000
     vertex  4.700000e+001 -2.800000e+001 -1.000000e+000
   endloop
 endfacet
 facet normal  0.000000e+000  0.000000e+000 -1.000000e+000
   outer loop
     vertex  1.800000e+001 -1.500000e+001 -1.000000e+000
     vertex  1.500000e+001 -1.500000e+001 -1.000000e+000
     vertex  2.850000e+001 -1.500000e+000 -1.000000e+000
   endloop
 endfacet
 facet normal  0.000000e+000  0.000000e+000 -1.000000e+000
   outer loop
     vertex  0.000000e+000  2.400000e+001 -1.000000e+000
     vertex -4.500000e+000  2.850000e+001 -1.000000e+000
     vertex -1.066410e+000  2.743359e+001 -1.000000e+000
   endloop
 endfacet
 facet normal -0.000000e+000  0.000000e+000 -1.000000e+000
   outer loop
     vertex  2.250000e+001 -1.050000e+001 -1.000000e+000
     vertex  1.800000e+001 -1.500000e+001 -1.000000e+000
     vertex  2.850000e+001 -1.500000e+000 -1.000000e+000
   endloop
 endfacet
 facet normal -0.000000e+000  0.000000e+000 -1.000000e+000
   outer loop
     vertex  2.400000e+001 -9.000000e+000 -1.000000e+000
     vertex  2.250000e+001 -1.050000e+001 -1.000000e+000
     vertex  2.850000e+001 -1.500000e+000 -1.000000e+000
   endloop
 endfacet
 facet normal -0.000000e+000  0.000000e+000 -1.000000e+000
   outer loop
     vertex  2.850000e+001 -4.500000e+000 -1.000000e+000
     vertex  2.400000e+001 -9.000000e+000 -1.000000e+000
     vertex  2.850000e+001 -1.500000e+000 -1.000000e+000
   endloop
 endfacet
 facet normal  0.000000e+000 -0.000000e+000 -1.000000e+000
   outer loop
     vertex  1.200000e+001  4.500000e+001 -1.000000e+000
     vertex  1.700000e+001  4.700000e+001 -1.000000e+000
     vertex -1.500000e+000  2.850000e+001 -1.000000e+000
   endloop
 endfacet
 facet normal  0.000000e+000  0.000000e+000 -1.000000e+000
   outer loop
     vertex -1.800000e+001  4.500000e+001 -1.000000e+000
     vertex -2.800000e+001  4.700000e+001 -1.000000e+000
     vertex  1.700000e+001  4.700000e+001 -1.000000e+000
   endloop
 endfacet
 facet normal  0.000000e+000  0.000000e+000 -1.000000e+000
   outer loop
     vertex -1.066410e+000  2.743359e+001 -1.000000e+000
     vertex -4.500000e+000  2.850000e+001 -1.000000e+000
     vertex -1.247870e+000  2.765460e+001 -1.000000e+000
   endloop
 endfacet
 facet normal  0.000000e+000  0.000000e+000 -1.000000e+000
   outer loop
     vertex  1.200000e+001  4.500000e+001 -1.000000e+000
     vertex -1.800000e+001  4.500000e+001 -1.000000e+000
     vertex  1.700000e+001  4.700000e+001 -1.000000e+000
   endloop
 endfacet
 facet normal -0.000000e+000 -0.000000e+000 -1.000000e+000
   outer loop
     vertex -1.050000e+001  1.350000e+001 -1.000000e+000
     vertex  1.350000e+001 -1.350000e+001 -1.000000e+000
     vertex -3.650000e+001  3.650000e+001 -1.000000e+000
   endloop
 endfacet
 facet normal -0.000000e+000 -0.000000e+000 -1.000000e+000
   outer loop
     vertex -1.500000e+001  1.800000e+001 -1.000000e+000
     vertex -1.050000e+001  1.350000e+001 -1.000000e+000
     vertex -3.650000e+001  3.650000e+001 -1.000000e+000
   endloop
 endfacet
 facet normal  0.000000e+000 -0.000000e+000 -1.000000e+000
   outer loop
     vertex  1.800000e+001 -6.000000e+000 -1.000000e+000
     vertex  2.700000e+001  0.000000e+000 -1.000000e+000
     vertex  1.350000e+001 -1.350000e+001 -1.000000e+000
   endloop
 endfacet
 facet normal  0.000000e+000  0.000000e+000 -1.000000e+000
   outer loop
     vertex  0.000000e+000  2.400000e+001 -1.000000e+000
     vertex -1.066410e+000  2.743359e+001 -1.000000e+000
     vertex -8.454000e-001  2.725214e+001 -1.000000e+000
   endloop
 endfacet
 facet normal  0.000000e+000 -0.000000e+000 -1.000000e+000
   outer loop
     vertex  1.350000e+001 -1.050000e+001 -1.000000e+000
     vertex  1.800000e+001 -6.000000e+000 -1.000000e+000
     vertex  1.350000e+001 -1.350000e+001 -1.000000e+000
   endloop
 endfacet
 facet normal  0.000000e+000 -0.000000e+000 -1.000000e+000
   outer loop
     vertex  1.950000e+001 -4.500000e+000 -1.000000e+000
     vertex  2.700000e+001  0.000000e+000 -1.000000e+000
     vertex  1.800000e+001 -6.000000e+000 -1.000000e+000
   endloop
 endfacet
 facet normal  0.000000e+000 -0.000000e+000 -1.000000e+000
   outer loop
     vertex  2.400000e+001  0.000000e+000 -1.000000e+000
     vertex  2.700000e+001  0.000000e+000 -1.000000e+000
     vertex  1.950000e+001 -4.500000e+000 -1.000000e+000
   endloop
 endfacet
 facet normal  0.000000e+000  0.000000e+000 -1.000000e+000
   outer loop
     vertex -1.050000e+001  2.250000e+001 -1.000000e+000
     vertex -2.850000e+001  4.350000e+001 -1.000000e+000
     vertex -9.000000e+000  2.400000e+001 -1.000000e+000
   endloop
 endfacet
 facet normal  0.000000e+000  0.000000e+000 -1.000000e+000
   outer loop
     vertex -3.000000e+001  4.200000e+001 -1.000000e+000
     vertex -2.850000e+001  4.350000e+001 -1.000000e+000
     vertex -1.050000e+001  2.250000e+001 -1.000000e+000
   endloop
 endfacet
 facet normal  0.000000e+000  0.000000e+000 -1.000000e+000
   outer loop
     vertex -1.247870e+000  2.765460e+001 -1.000000e+000
     vertex -4.500000e+000  2.850000e+001 -1.000000e+000
     vertex -1.384280e+000  2.790967e+001 -1.000000e+000
   endloop
 endfacet
 facet normal -0.000000e+000 -0.000000e+000  1.000000e+000
   outer loop
     vertex -2.100000e+001  4.500000e+001  1.000000e+000
     vertex -4.500000e+000  2.850000e+001  1.000000e+000
     vertex -1.800000e+001  4.500000e+001  1.000000e+000
   endloop
 endfacet
 facet normal -0.000000e+000  0.000000e+000  1.000000e+000
   outer loop
     vertex  5.900000e+001  3.500000e+001  1.000000e+000
     vertex  2.550000e+001  1.500000e+000  1.000000e+000
     vertex  4.700000e+001  2.000000e+001  1.000000e+000
   endloop
 endfacet
 facet normal -0.000000e+000  0.000000e+000  1.000000e+000
   outer loop
     vertex  2.850000e+001 -4.500000e+000  1.000000e+000
     vertex  4.500000e+001 -2.100000e+001  1.000000e+000
     vertex  4.500000e+001 -1.800000e+001  1.000000e+000
   endloop
 endfacet
 facet normal  0.000000e+000  0.000000e+000  1.000000e+000
   outer loop
     vertex  4.350000e+001 -2.850000e+001  1.000000e+000
     vertex  2.400000e+001 -9.000000e+000  1.000000e+000
     vertex  4.200000e+001 -3.000000e+001  1.000000e+000
   endloop
 endfacet
 facet normal  0.000000e+000  0.000000e+000  1.000000e+000
   outer loop
     vertex -5.903300e-001  2.711572e+001  1.000000e+000
     vertex -8.454000e-001  2.725214e+001  1.000000e+000
     vertex  0.000000e+000  2.400000e+001  1.000000e+000
   endloop
 endfacet
 facet normal  0.000000e+000  0.000000e+000  1.000000e+000
   outer loop
     vertex  4.200000e+001 -3.000000e+001  1.000000e+000
     vertex  2.400000e+001 -9.000000e+000  1.000000e+000
     vertex  2.250000e+001 -1.050000e+001  1.000000e+000
   endloop
 endfacet
 facet normal  0.000000e+000  0.000000e+000  1.000000e+000
   outer loop
     vertex -1.470150e+000  2.819330e+001  1.000000e+000
     vertex -4.500000e+000  2.850000e+001  1.000000e+000
     vertex -1.384280e+000  2.790967e+001  1.000000e+000
   endloop
 endfacet
 facet normal  0.000000e+000  0.000000e+000  1.000000e+000
   outer loop
     vertex -3.067000e-001  2.702985e+001  1.000000e+000
     vertex -5.903300e-001  2.711572e+001  1.000000e+000
     vertex  0.000000e+000  2.400000e+001  1.000000e+000
   endloop
 endfacet
 facet normal  0.000000e+000  0.000000e+000  1.000000e+000
   outer loop
     vertex -1.558900e-001  2.700758e+001  1.000000e+000
     vertex -3.067000e-001  2.702985e+001  1.000000e+000
     vertex  0.000000e+000  2.400000e+001  1.000000e+000
   endloop
 endfacet
 facet normal  0.000000e+000  0.000000e+000  1.000000e+000
   outer loop
     vertex -1.492420e+000  2.834411e+001  1.000000e+000
     vertex -4.500000e+000  2.850000e+001  1.000000e+000
     vertex -1.470150e+000  2.819330e+001  1.000000e+000
   endloop
 endfacet
 facet normal  0.000000e+000  0.000000e+000  1.000000e+000
   outer loop
     vertex -3.450000e+001  3.750000e+001  1.000000e+000
     vertex -3.650000e+001  3.850000e+001  1.000000e+000
     vertex -3.650000e+001  3.650000e+001  1.000000e+000
   endloop
 endfacet
 facet normal  0.000000e+000  0.000000e+000  1.000000e+000
   outer loop
     vertex -1.800000e+001  4.500000e+001  1.000000e+000
     vertex -2.800000e+001  4.700000e+001  1.000000e+000
     vertex -2.100000e+001  4.500000e+001  1.000000e+000
   endloop
 endfacet
 facet normal  0.000000e+000  0.000000e+000  1.000000e+000
   outer loop
     vertex -1.500000e+001  1.800000e+001  1.000000e+000
     vertex -3.450000e+001  3.750000e+001  1.000000e+000
     vertex -3.650000e+001  3.650000e+001  1.000000e+000
   endloop
 endfacet
 facet normal  0.000000e+000  0.000000e+000  1.000000e+000
   outer loop
     vertex  0.000000e+000  2.700000e+001  1.000000e+000
     vertex -1.558900e-001  2.700758e+001  1.000000e+000
     vertex  0.000000e+000  2.400000e+001  1.000000e+000
   endloop
 endfacet
 facet normal  0.000000e+000  0.000000e+000  1.000000e+000
   outer loop
     vertex -1.500000e+000  2.850000e+001  1.000000e+000
     vertex -4.500000e+000  2.850000e+001  1.000000e+000
     vertex -1.492420e+000  2.834411e+001  1.000000e+000
   endloop
 endfacet
 facet normal  0.000000e+000  0.000000e+000  1.000000e+000
   outer loop
     vertex  1.350000e+001 -1.050000e+001  1.000000e+000
     vertex -1.050000e+001  1.350000e+001  1.000000e+000
     vertex  1.350000e+001 -1.350000e+001  1.000000e+000
   endloop
 endfacet
 facet normal  0.000000e+000  0.000000e+000  1.000000e+000
   outer loop
     vertex  1.800000e+001 -1.500000e+001  1.000000e+000
     vertex  1.500000e+001 -1.500000e+001  1.000000e+000
     vertex  3.650000e+001 -3.650000e+001  1.000000e+000
   endloop
 endfacet
 facet normal -0.000000e+000  0.000000e+000  1.000000e+000
   outer loop
     vertex -3.000000e+000  3.000000e+001  1.000000e+000
     vertex -4.500000e+000  2.850000e+001  1.000000e+000
     vertex -1.500000e+000  2.850000e+001  1.000000e+000
   endloop
 endfacet
 facet normal  0.000000e+000  0.000000e+000  1.000000e+000
   outer loop
     vertex -3.000000e+000  3.000000e+001  1.000000e+000
     vertex -1.800000e+001  4.500000e+001  1.000000e+000
     vertex -4.500000e+000  2.850000e+001  1.000000e+000
   endloop
 endfacet
 facet normal  0.000000e+000  0.000000e+000  1.000000e+000
   outer loop
     vertex  1.500000e+000  2.550000e+001  1.000000e+000
     vertex  0.000000e+000  2.400000e+001  1.000000e+000
     vertex  2.400000e+001  0.000000e+000  1.000000e+000
   endloop
 endfacet
 facet normal  0.000000e+000  0.000000e+000  1.000000e+000
   outer loop
     vertex  1.500000e+000  2.550000e+001  1.000000e+000
     vertex  0.000000e+000  2.700000e+001  1.000000e+000
     vertex  0.000000e+000  2.400000e+001  1.000000e+000
   endloop
 endfacet
 facet normal -0.000000e+000  0.000000e+000  1.000000e+000
   outer loop
     vertex  3.750000e+001 -3.450000e+001  1.000000e+000
     vertex  3.650000e+001 -3.650000e+001  1.000000e+000
     vertex  3.850000e+001 -3.650000e+001  1.000000e+000
   endloop
 endfacet
 facet normal  0.000000e+000  0.000000e+000  1.000000e+000
   outer loop
     vertex  3.750000e+001 -3.450000e+001  1.000000e+000
     vertex  1.800000e+001 -1.500000e+001  1.000000e+000
     vertex  3.650000e+001 -3.650000e+001  1.000000e+000
   endloop
 endfacet
 facet normal  0.000000e+000  0.000000e+000  1.000000e+000
   outer loop
     vertex -3.000000e+001  4.200000e+001  1.000000e+000
     vertex -3.650000e+001  3.850000e+001  1.000000e+000
     vertex -3.450000e+001  3.750000e+001  1.000000e+000
   endloop
 endfacet
 facet normal  0.000000e+000  0.000000e+000  1.000000e+000
   outer loop
     vertex  2.550000e+001  1.500000e+000  1.000000e+000
     vertex  1.500000e+000  2.550000e+001  1.000000e+000
     vertex  2.400000e+001  0.000000e+000  1.000000e+000
   endloop
 endfacet
 facet normal -0.000000e+000  0.000000e+000  1.000000e+000
   outer loop
     vertex  2.550000e+001  1.500000e+000  1.000000e+000
     vertex  2.400000e+001  0.000000e+000  1.000000e+000
     vertex  2.700000e+001  0.000000e+000  1.000000e+000
   endloop
 endfacet
 facet normal -0.000000e+000  0.000000e+000  1.000000e+000
   outer loop
     vertex -1.050000e+001  2.250000e+001  1.000000e+000
     vertex -1.050000e+001  1.350000e+001  1.000000e+000
     vertex -6.000000e+000  1.800000e+001  1.000000e+000
   endloop
 endfacet
 facet normal -0.000000e+000  0.000000e+000  1.000000e+000
   outer loop
     vertex  2.850000e+001 -1.500000e+000  1.000000e+000
     vertex  2.850000e+001 -4.500000e+000  1.000000e+000
     vertex  3.000000e+001 -3.000000e+000  1.000000e+000
   endloop
 endfacet
 facet normal  0.000000e+000  0.000000e+000  1.000000e+000
   outer loop
     vertex  4.500000e+001 -1.800000e+001  1.000000e+000
     vertex  4.500000e+001 -2.100000e+001  1.000000e+000
     vertex  4.700000e+001 -2.800000e+001  1.000000e+000
   endloop
 endfacet
 facet normal  0.000000e+000  0.000000e+000  1.000000e+000
   outer loop
     vertex -1.050000e+001  2.250000e+001  1.000000e+000
     vertex -1.500000e+001  1.800000e+001  1.000000e+000
     vertex -1.050000e+001  1.350000e+001  1.000000e+000
   endloop
 endfacet
 facet normal  0.000000e+000  0.000000e+000  1.000000e+000
   outer loop
     vertex  4.500000e+001 -1.800000e+001  1.000000e+000
     vertex  3.000000e+001 -3.000000e+000  1.000000e+000
     vertex  2.850000e+001 -4.500000e+000  1.000000e+000
   endloop
 endfacet
 facet normal  0.000000e+000  0.000000e+000  1.000000e+000
   outer loop
     vertex  2.715589e+001 -7.580000e-003  1.000000e+000
     vertex  2.550000e+001  1.500000e+000  1.000000e+000
     vertex  2.700000e+001  0.000000e+000  1.000000e+000
   endloop
 endfacet
 facet normal  0.000000e+000  0.000000e+000  1.000000e+000
   outer loop
     vertex  4.200000e+001 -3.000000e+001  1.000000e+000
     vertex  3.750000e+001 -3.450000e+001  1.000000e+000
     vertex  3.850000e+001 -3.650000e+001  1.000000e+000
   endloop
 endfacet
 facet normal  0.000000e+000  0.000000e+000  1.000000e+000
   outer loop
     vertex  2.849242e+001 -1.344110e+000  1.000000e+000
     vertex  2.850000e+001 -1.500000e+000  1.000000e+000
     vertex  3.000000e+001 -3.000000e+000  1.000000e+000
   endloop
 endfacet
 facet normal  0.000000e+000  0.000000e+000  1.000000e+000
   outer loop
     vertex  2.847015e+001 -1.193300e+000  1.000000e+000
     vertex  2.849242e+001 -1.344110e+000  1.000000e+000
     vertex  3.000000e+001 -3.000000e+000  1.000000e+000
   endloop
 endfacet
 facet normal  0.000000e+000  0.000000e+000  1.000000e+000
   outer loop
     vertex  2.730670e+001 -2.985000e-002  1.000000e+000
     vertex  2.550000e+001  1.500000e+000  1.000000e+000
     vertex  2.715589e+001 -7.580000e-003  1.000000e+000
   endloop
 endfacet
 facet normal  0.000000e+000  0.000000e+000  1.000000e+000
   outer loop
     vertex -9.000000e+000  2.400000e+001  1.000000e+000
     vertex -1.050000e+001  2.250000e+001  1.000000e+000
     vertex -6.000000e+000  1.800000e+001  1.000000e+000
   endloop
 endfacet
 facet normal  0.000000e+000  0.000000e+000  1.000000e+000
   outer loop
     vertex  2.759033e+001 -1.157200e-001  1.000000e+000
     vertex  2.550000e+001  1.500000e+000  1.000000e+000
     vertex  2.730670e+001 -2.985000e-002  1.000000e+000
   endloop
 endfacet
 facet normal -0.000000e+000  0.000000e+000  1.000000e+000
   outer loop
     vertex -9.000000e+000  2.400000e+001  1.000000e+000
     vertex -6.000000e+000  1.800000e+001  1.000000e+000
     vertex -4.500000e+000  1.950000e+001  1.000000e+000
   endloop
 endfacet
 facet normal  0.000000e+000  0.000000e+000  1.000000e+000
   outer loop
     vertex  1.950000e+001 -4.500000e+000  1.000000e+000
     vertex -4.500000e+000  1.950000e+001  1.000000e+000
     vertex -6.000000e+000  1.800000e+001  1.000000e+000
   endloop
 endfacet
 facet normal  0.000000e+000  0.000000e+000  1.000000e+000
   outer loop
     vertex  1.950000e+001 -4.500000e+000  1.000000e+000
     vertex -6.000000e+000  1.800000e+001  1.000000e+000
     vertex  1.800000e+001 -6.000000e+000  1.000000e+000
   endloop
 endfacet
 facet normal  0.000000e+000  0.000000e+000  1.000000e+000
   outer loop
     vertex  2.838428e+001 -9.096700e-001  1.000000e+000
     vertex  2.847015e+001 -1.193300e+000  1.000000e+000
     vertex  3.000000e+001 -3.000000e+000  1.000000e+000
   endloop
 endfacet
 facet normal  0.000000e+000  0.000000e+000  1.000000e+000
   outer loop
     vertex  2.784540e+001 -2.521400e-001  1.000000e+000
     vertex  2.550000e+001  1.500000e+000  1.000000e+000
     vertex  2.759033e+001 -1.157200e-001  1.000000e+000
   endloop
 endfacet
 facet normal  0.000000e+000  0.000000e+000  1.000000e+000
   outer loop
     vertex  2.824787e+001 -6.546000e-001  1.000000e+000
     vertex  2.838428e+001 -9.096700e-001  1.000000e+000
     vertex  3.000000e+001 -3.000000e+000  1.000000e+000
   endloop
 endfacet
 facet normal  0.000000e+000  0.000000e+000  1.000000e+000
   outer loop
     vertex  1.200000e+001  4.500000e+001  1.000000e+000
     vertex -3.000000e+000  3.000000e+001  1.000000e+000
     vertex -1.500000e+000  2.850000e+001  1.000000e+000
   endloop
 endfacet
 facet normal  0.000000e+000  0.000000e+000  1.000000e+000
   outer loop
     vertex  4.500000e+001  1.200000e+001  1.000000e+000
     vertex  2.550000e+001  1.500000e+000  1.000000e+000
     vertex  2.784540e+001 -2.521400e-001  1.000000e+000
   endloop
 endfacet
 facet normal -0.000000e+000  0.000000e+000  1.000000e+000
   outer loop
     vertex -2.800000e+001  4.700000e+001  1.000000e+000
     vertex -3.000000e+001  4.200000e+001  1.000000e+000
     vertex -2.850000e+001  4.350000e+001  1.000000e+000
   endloop
 endfacet
 facet normal  0.000000e+000  0.000000e+000  1.000000e+000
   outer loop
     vertex  4.500000e+001  1.200000e+001  1.000000e+000
     vertex  2.824787e+001 -6.546000e-001  1.000000e+000
     vertex  3.000000e+001 -3.000000e+000  1.000000e+000
   endloop
 endfacet
 facet normal  0.000000e+000  0.000000e+000  1.000000e+000
   outer loop
     vertex  4.500000e+001  1.200000e+001  1.000000e+000
     vertex  2.806641e+001 -4.335900e-001  1.000000e+000
     vertex  2.824787e+001 -6.546000e-001  1.000000e+000
   endloop
 endfacet
 facet normal -0.000000e+000  0.000000e+000  1.000000e+000
   outer loop
     vertex -2.800000e+001  4.700000e+001  1.000000e+000
     vertex -2.850000e+001  4.350000e+001  1.000000e+000
     vertex -2.700000e+001  4.500000e+001  1.000000e+000
   endloop
 endfacet
 facet normal  0.000000e+000  0.000000e+000  1.000000e+000
   outer loop
     vertex  4.500000e+001  1.200000e+001  1.000000e+000
     vertex  2.784540e+001 -2.521400e-001  1.000000e+000
     vertex  2.806641e+001 -4.335900e-001  1.000000e+000
   endloop
 endfacet
 facet normal -0.000000e+000  0.000000e+000  1.000000e+000
   outer loop
     vertex -2.800000e+001  4.700000e+001  1.000000e+000
     vertex -3.650000e+001  3.850000e+001  1.000000e+000
     vertex -3.000000e+001  4.200000e+001  1.000000e+000
   endloop
 endfacet
 facet normal  0.000000e+000  0.000000e+000  1.000000e+000
   outer loop
     vertex  4.700000e+001 -2.800000e+001  1.000000e+000
     vertex  4.200000e+001 -3.000000e+001  1.000000e+000
     vertex  3.850000e+001 -3.650000e+001  1.000000e+000
   endloop
 endfacet
 facet normal  0.000000e+000  0.000000e+000  1.000000e+000
   outer loop
     vertex  4.700000e+001 -2.800000e+001  1.000000e+000
     vertex  4.500000e+001 -2.700000e+001  1.000000e+000
     vertex  4.350000e+001 -2.850000e+001  1.000000e+000
   endloop
 endfacet
 facet normal  0.000000e+000  0.000000e+000  1.000000e+000
   outer loop
     vertex  4.700000e+001 -2.800000e+001  1.000000e+000
     vertex  4.350000e+001 -2.850000e+001  1.000000e+000
     vertex  4.200000e+001 -3.000000e+001  1.000000e+000
   endloop
 endfacet
 facet normal  0.000000e+000  0.000000e+000  1.000000e+000
   outer loop
     vertex -2.100000e+001  4.500000e+001  1.000000e+000
     vertex -2.800000e+001  4.700000e+001  1.000000e+000
     vertex -2.700000e+001  4.500000e+001  1.000000e+000
   endloop
 endfacet
 facet normal -0.000000e+000  0.000000e+000  1.000000e+000
   outer loop
     vertex  4.700000e+001  2.000000e+001  1.000000e+000
     vertex  2.550000e+001  1.500000e+000  1.000000e+000
     vertex  4.500000e+001  1.200000e+001  1.000000e+000
   endloop
 endfacet
 facet normal  0.000000e+000  0.000000e+000  1.000000e+000
   outer loop
     vertex -4.500000e+000  2.850000e+001  1.000000e+000
     vertex -9.000000e+000  2.400000e+001  1.000000e+000
     vertex -4.500000e+000  1.950000e+001  1.000000e+000
   endloop
 endfacet
 facet normal -0.000000e+000  0.000000e+000  1.000000e+000
   outer loop
     vertex -4.500000e+000  2.850000e+001  1.000000e+000
     vertex -4.500000e+000  1.950000e+001  1.000000e+000
     vertex  0.000000e+000  2.400000e+001  1.000000e+000
   endloop
 endfacet
 facet normal  0.000000e+000  0.000000e+000  1.000000e+000
   outer loop
     vertex  6.200000e+001  3.500000e+001  1.000000e+000
     vertex  5.900000e+001  3.500000e+001  1.000000e+000
     vertex  4.700000e+001  2.000000e+001  1.000000e+000
   endloop
 endfacet
 facet normal  0.000000e+000  0.000000e+000  1.000000e+000
   outer loop
     vertex  6.200000e+001  3.500000e+001  1.000000e+000
     vertex  3.500000e+001  6.200000e+001  1.000000e+000
     vertex  3.500000e+001  5.900000e+001  1.000000e+000
   endloop
 endfacet
 facet normal  0.000000e+000  0.000000e+000  1.000000e+000
   outer loop
     vertex  4.500000e+001 -2.100000e+001  1.000000e+000
     vertex  4.500000e+001 -2.700000e+001  1.000000e+000
     vertex  4.700000e+001 -2.800000e+001  1.000000e+000
   endloop
 endfacet
 facet normal  0.000000e+000  0.000000e+000  1.000000e+000
   outer loop
     vertex  6.200000e+001  3.500000e+001  1.000000e+000
     vertex  3.500000e+001  5.900000e+001  1.000000e+000
     vertex  5.900000e+001  3.500000e+001  1.000000e+000
   endloop
 endfacet
 facet normal -0.000000e+000  0.000000e+000  1.000000e+000
   outer loop
     vertex  3.500000e+001  6.200000e+001  1.000000e+000
     vertex  0.000000e+000  2.700000e+001  1.000000e+000
     vertex  3.500000e+001  5.900000e+001  1.000000e+000
   endloop
 endfacet
 facet normal  0.000000e+000  0.000000e+000  1.000000e+000
   outer loop
     vertex  3.500000e+001  5.900000e+001  1.000000e+000
     vertex  0.000000e+000  2.700000e+001  1.000000e+000
     vertex  1.500000e+000  2.550000e+001  1.000000e+000
   endloop
 endfacet
 facet normal  0.000000e+000 -0.000000e+000  1.000000e+000
   outer loop
     vertex  4.700000e+001 -2.800000e+001  1.000000e+000
     vertex  4.700000e+001  2.000000e+001  1.000000e+000
     vertex  4.500000e+001  1.200000e+001  1.000000e+000
   endloop
 endfacet
 facet normal  0.000000e+000  0.000000e+000  1.000000e+000
   outer loop
     vertex  4.700000e+001 -2.800000e+001  1.000000e+000
     vertex  4.500000e+001  1.200000e+001  1.000000e+000
     vertex  4.500000e+001 -1.800000e+001  1.000000e+000
   endloop
 endfacet
 facet normal -0.000000e+000  0.000000e+000  1.000000e+000
   outer loop
     vertex  2.850000e+001 -1.500000e+000  1.000000e+000
     vertex  1.500000e+001 -1.500000e+001  1.000000e+000
     vertex  1.800000e+001 -1.500000e+001  1.000000e+000
   endloop
 endfacet
 facet normal  0.000000e+000  0.000000e+000  1.000000e+000
   outer loop
     vertex -1.066410e+000  2.743359e+001  1.000000e+000
     vertex -4.500000e+000  2.850000e+001  1.000000e+000
     vertex  0.000000e+000  2.400000e+001  1.000000e+000
   endloop
 endfacet
 facet normal -0.000000e+000  0.000000e+000  1.000000e+000
   outer loop
     vertex  2.850000e+001 -1.500000e+000  1.000000e+000
     vertex  1.800000e+001 -1.500000e+001  1.000000e+000
     vertex  2.250000e+001 -1.050000e+001  1.000000e+000
   endloop
 endfacet
 facet normal -0.000000e+000  0.000000e+000  1.000000e+000
   outer loop
     vertex  2.850000e+001 -1.500000e+000  1.000000e+000
     vertex  2.250000e+001 -1.050000e+001  1.000000e+000
     vertex  2.400000e+001 -9.000000e+000  1.000000e+000
   endloop
 endfacet
 facet normal -0.000000e+000  0.000000e+000  1.000000e+000
   outer loop
     vertex  2.850000e+001 -1.500000e+000  1.000000e+000
     vertex  2.400000e+001 -9.000000e+000  1.000000e+000
     vertex  2.850000e+001 -4.500000e+000  1.000000e+000
   endloop
 endfacet
 facet normal  0.000000e+000 -0.000000e+000  1.000000e+000
   outer loop
     vertex -1.500000e+000  2.850000e+001  1.000000e+000
     vertex  1.700000e+001  4.700000e+001  1.000000e+000
     vertex  1.200000e+001  4.500000e+001  1.000000e+000
   endloop
 endfacet
 facet normal  0.000000e+000  0.000000e+000  1.000000e+000
   outer loop
     vertex  1.700000e+001  4.700000e+001  1.000000e+000
     vertex -2.800000e+001  4.700000e+001  1.000000e+000
     vertex -1.800000e+001  4.500000e+001  1.000000e+000
   endloop
 endfacet
 facet normal  0.000000e+000  0.000000e+000  1.000000e+000
   outer loop
     vertex -1.247870e+000  2.765460e+001  1.000000e+000
     vertex -4.500000e+000  2.850000e+001  1.000000e+000
     vertex -1.066410e+000  2.743359e+001  1.000000e+000
   endloop
 endfacet
 facet normal -0.000000e+000  0.000000e+000  1.000000e+000
   outer loop
     vertex  1.700000e+001  4.700000e+001  1.000000e+000
     vertex -1.800000e+001  4.500000e+001  1.000000e+000
     vertex  1.200000e+001  4.500000e+001  1.000000e+000
   endloop
 endfacet
 facet normal -0.000000e+000 -0.000000e+000  1.000000e+000
   outer loop
     vertex -3.650000e+001  3.650000e+001  1.000000e+000
     vertex  1.350000e+001 -1.350000e+001  1.000000e+000
     vertex -1.050000e+001  1.350000e+001  1.000000e+000
   endloop
 endfacet
 facet normal -0.000000e+000 -0.000000e+000  1.000000e+000
   outer loop
     vertex -3.650000e+001  3.650000e+001  1.000000e+000
     vertex -1.050000e+001  1.350000e+001  1.000000e+000
     vertex -1.500000e+001  1.800000e+001  1.000000e+000
   endloop
 endfacet
 facet normal  0.000000e+000 -0.000000e+000  1.000000e+000
   outer loop
     vertex  1.350000e+001 -1.350000e+001  1.000000e+000
     vertex  2.700000e+001  0.000000e+000  1.000000e+000
     vertex  1.800000e+001 -6.000000e+000  1.000000e+000
   endloop
 endfacet
 facet normal  0.000000e+000  0.000000e+000  1.000000e+000
   outer loop
     vertex -8.454000e-001  2.725214e+001  1.000000e+000
     vertex -1.066410e+000  2.743359e+001  1.000000e+000
     vertex  0.000000e+000  2.400000e+001  1.000000e+000
   endloop
 endfacet
 facet normal  0.000000e+000 -0.000000e+000  1.000000e+000
   outer loop
     vertex  1.350000e+001 -1.350000e+001  1.000000e+000
     vertex  1.800000e+001 -6.000000e+000  1.000000e+000
     vertex  1.350000e+001 -1.050000e+001  1.000000e+000
   endloop
 endfacet
 facet normal  0.000000e+000 -0.000000e+000  1.000000e+000
   outer loop
     vertex  1.800000e+001 -6.000000e+000  1.000000e+000
     vertex  2.700000e+001  0.000000e+000  1.000000e+000
     vertex  1.950000e+001 -4.500000e+000  1.000000e+000
   endloop
 endfacet
 facet normal  0.000000e+000 -0.000000e+000  1.000000e+000
   outer loop
     vertex  1.950000e+001 -4.500000e+000  1.000000e+000
     vertex  2.700000e+001  0.000000e+000  1.000000e+000
     vertex  2.400000e+001  0.000000e+000  1.000000e+000
   endloop
 endfacet
 facet normal  0.000000e+000  0.000000e+000  1.000000e+000
   outer loop
     vertex -9.000000e+000  2.400000e+001  1.000000e+000
     vertex -2.850000e+001  4.350000e+001  1.000000e+000
     vertex -1.050000e+001  2.250000e+001  1.000000e+000
   endloop
 endfacet
 facet normal  0.000000e+000  0.000000e+000  1.000000e+000
   outer loop
     vertex -1.050000e+001  2.250000e+001  1.000000e+000
     vertex -2.850000e+001  4.350000e+001  1.000000e+000
     vertex -3.000000e+001  4.200000e+001  1.000000e+000
   endloop
 endfacet
 facet normal  0.000000e+000  0.000000e+000  1.000000e+000
   outer loop
     vertex -1.384280e+000  2.790967e+001  1.000000e+000
     vertex -4.500000e+000  2.850000e+001  1.000000e+000
     vertex -1.247870e+000  2.765460e+001  1.000000e+000
   endloop
 endfacet
endsolid
