M48
; DRILL file {KiCad (5.1.2)-2} date 9/25/2019 1:34:46 PM
; FORMAT={-:-/ absolute / inch / decimal}
; #@! TF.CreationDate,2019-09-25T13:34:46+02:00
; #@! TF.GenerationSoftware,Kicad,Pcbnew,(5.1.2)-2
FMAT,2
INCH
T1C0.0394
%
G90
G05
T1
X6.1417Y-1.5157
X5.5118Y-6.1417
X2.5591Y-6.3583
X5.5118Y-1.7323
X1.7323Y-2.7559
X6.1417Y-5.5118
X2.1654Y-1.5157
X3.937Y-6.1614
X2.7559Y-6.1417
X1.7323Y-3.937
X6.1417Y-3.5433
X2.3622Y-1.7323
X6.1417Y-6.3583
X3.5433Y-6.1614
X1.7323Y-5.1181
X6.1417Y-3.1496
X6.1417Y-5.9055
X1.9685Y-1.7323
X1.7323Y-6.3583
X6.1417Y-1.9685
X4.9213Y-6.3583
X2.3622Y-6.1417
X5.7087Y-1.5157
X1.7323Y-2.3622
X4.7244Y-6.1417
X4.1339Y-6.3583
X3.3465Y-6.3583
X4.9213Y-1.5157
X1.7323Y-3.5433
X6.1417Y-4.7244
X2.9528Y-1.5157
X4.5276Y-6.3583
X3.4449Y-1.5157
X5.1181Y-1.7323
X1.7323Y-4.7244
X6.1417Y-2.7559
X3.1496Y-1.7323
X5.9055Y-6.1417
X3.4449Y-1.7323
X4.3307Y-6.1417
X1.7323Y-5.9055
X5.315Y-6.3583
X4.4291Y-1.5157
X2.1654Y-6.3583
X5.9055Y-1.7323
X5.1181Y-6.1417
X2.9528Y-6.3583
X5.315Y-1.5157
X1.7323Y-3.1496
X6.1417Y-5.1181
X2.5591Y-1.5157
X3.1496Y-6.1614
X1.7323Y-4.3307
X6.1417Y-3.937
X2.7559Y-1.7323
X1.7323Y-1.5157
X3.7402Y-6.3583
X4.7244Y-1.7126
X1.7323Y-5.5118
X6.1417Y-2.3622
X5.7087Y-6.3583
X1.7323Y-1.9685
X6.1417Y-4.3307
X4.4291Y-1.7323
X1.9685Y-6.1417
T0
M30
