G04 #@! TF.GenerationSoftware,KiCad,Pcbnew,(5.1.2)-2*
G04 #@! TF.CreationDate,2019-09-25T13:34:37+02:00*
G04 #@! TF.ProjectId,foam-template,666f616d-2d74-4656-9d70-6c6174652e6b,rev?*
G04 #@! TF.SameCoordinates,Original*
G04 #@! TF.FileFunction,Copper,L2,Bot*
G04 #@! TF.FilePolarity,Positive*
%FSLAX46Y46*%
G04 Gerber Fmt 4.6, Leading zero omitted, Abs format (unit mm)*
G04 Created by KiCad (PCBNEW (5.1.2)-2) date 2019-09-25 13:34:37*
%MOMM*%
%LPD*%
G04 APERTURE LIST*
%ADD10R,2.000000X2.000000*%
G04 APERTURE END LIST*
D10*
X100000000Y-156500000D03*
X105000000Y-161500000D03*
X112500000Y-38500000D03*
X112500000Y-44000000D03*
X120000000Y-43500000D03*
X130000000Y-44000000D03*
X125000000Y-38500000D03*
X135000000Y-38500000D03*
X140000000Y-44000000D03*
X145000000Y-38500000D03*
X150000000Y-44000000D03*
X156000000Y-38500000D03*
X156000000Y-50000000D03*
X156000000Y-60000000D03*
X156000000Y-70000000D03*
X156000000Y-80000000D03*
X156000000Y-90000000D03*
X156000000Y-100000000D03*
X156000000Y-110000000D03*
X156000000Y-120000000D03*
X156000000Y-130000000D03*
X156000000Y-140000000D03*
X120000000Y-156000000D03*
X130000000Y-156000000D03*
X140000000Y-156000000D03*
X125000000Y-161500000D03*
X135000000Y-161500000D03*
X145000000Y-161500000D03*
X156000000Y-150000000D03*
X150000000Y-156000000D03*
X156000000Y-161500000D03*
X115000000Y-161500000D03*
X110000000Y-156000000D03*
X95000000Y-161500000D03*
X90000000Y-156500000D03*
X80000000Y-156500000D03*
X70000000Y-156000000D03*
X85000000Y-161500000D03*
X75000000Y-161500000D03*
X65000000Y-161500000D03*
X60000000Y-156000000D03*
X55000000Y-161500000D03*
X50000000Y-156000000D03*
X44000000Y-161500000D03*
X44000000Y-150000000D03*
X44000000Y-140000000D03*
X44000000Y-130000000D03*
X44000000Y-120000000D03*
X44000000Y-110000000D03*
X44000000Y-100000000D03*
X44000000Y-90000000D03*
X44000000Y-80000000D03*
X44000000Y-70000000D03*
X44000000Y-60000000D03*
X80000000Y-44000000D03*
X70000000Y-44000000D03*
X60000000Y-44000000D03*
X75000000Y-38500000D03*
X65000000Y-38500000D03*
X55000000Y-38500000D03*
X44000000Y-50000000D03*
X50000000Y-44000000D03*
X44000000Y-38500000D03*
X87500000Y-44000000D03*
X87500000Y-38500000D03*
M02*
