G04 #@! TF.GenerationSoftware,KiCad,Pcbnew,(5.1.2)-2*
G04 #@! TF.CreationDate,2019-09-25T13:34:38+02:00*
G04 #@! TF.ProjectId,foam-template,666f616d-2d74-4656-9d70-6c6174652e6b,rev?*
G04 #@! TF.SameCoordinates,Original*
G04 #@! TF.FileFunction,Soldermask,Top*
G04 #@! TF.FilePolarity,Negative*
%FSLAX46Y46*%
G04 Gerber Fmt 4.6, Leading zero omitted, Abs format (unit mm)*
G04 Created by KiCad (PCBNEW (5.1.2)-2) date 2019-09-25 13:34:38*
%MOMM*%
%LPD*%
G04 APERTURE LIST*
%ADD10C,0.100000*%
G04 APERTURE END LIST*
D10*
G36*
X157051000Y-162551000D02*
G01*
X154949000Y-162551000D01*
X154949000Y-160449000D01*
X157051000Y-160449000D01*
X157051000Y-162551000D01*
X157051000Y-162551000D01*
G37*
G36*
X56051000Y-162551000D02*
G01*
X53949000Y-162551000D01*
X53949000Y-160449000D01*
X56051000Y-160449000D01*
X56051000Y-162551000D01*
X56051000Y-162551000D01*
G37*
G36*
X45051000Y-162551000D02*
G01*
X42949000Y-162551000D01*
X42949000Y-160449000D01*
X45051000Y-160449000D01*
X45051000Y-162551000D01*
X45051000Y-162551000D01*
G37*
G36*
X66051000Y-162551000D02*
G01*
X63949000Y-162551000D01*
X63949000Y-160449000D01*
X66051000Y-160449000D01*
X66051000Y-162551000D01*
X66051000Y-162551000D01*
G37*
G36*
X76051000Y-162551000D02*
G01*
X73949000Y-162551000D01*
X73949000Y-160449000D01*
X76051000Y-160449000D01*
X76051000Y-162551000D01*
X76051000Y-162551000D01*
G37*
G36*
X86051000Y-162551000D02*
G01*
X83949000Y-162551000D01*
X83949000Y-160449000D01*
X86051000Y-160449000D01*
X86051000Y-162551000D01*
X86051000Y-162551000D01*
G37*
G36*
X96051000Y-162551000D02*
G01*
X93949000Y-162551000D01*
X93949000Y-160449000D01*
X96051000Y-160449000D01*
X96051000Y-162551000D01*
X96051000Y-162551000D01*
G37*
G36*
X146051000Y-162551000D02*
G01*
X143949000Y-162551000D01*
X143949000Y-160449000D01*
X146051000Y-160449000D01*
X146051000Y-162551000D01*
X146051000Y-162551000D01*
G37*
G36*
X136051000Y-162551000D02*
G01*
X133949000Y-162551000D01*
X133949000Y-160449000D01*
X136051000Y-160449000D01*
X136051000Y-162551000D01*
X136051000Y-162551000D01*
G37*
G36*
X126051000Y-162551000D02*
G01*
X123949000Y-162551000D01*
X123949000Y-160449000D01*
X126051000Y-160449000D01*
X126051000Y-162551000D01*
X126051000Y-162551000D01*
G37*
G36*
X106051000Y-162551000D02*
G01*
X103949000Y-162551000D01*
X103949000Y-160449000D01*
X106051000Y-160449000D01*
X106051000Y-162551000D01*
X106051000Y-162551000D01*
G37*
G36*
X116051000Y-162551000D02*
G01*
X113949000Y-162551000D01*
X113949000Y-160449000D01*
X116051000Y-160449000D01*
X116051000Y-162551000D01*
X116051000Y-162551000D01*
G37*
G36*
X101051000Y-157551000D02*
G01*
X98949000Y-157551000D01*
X98949000Y-155449000D01*
X101051000Y-155449000D01*
X101051000Y-157551000D01*
X101051000Y-157551000D01*
G37*
G36*
X81051000Y-157551000D02*
G01*
X78949000Y-157551000D01*
X78949000Y-155449000D01*
X81051000Y-155449000D01*
X81051000Y-157551000D01*
X81051000Y-157551000D01*
G37*
G36*
X91051000Y-157551000D02*
G01*
X88949000Y-157551000D01*
X88949000Y-155449000D01*
X91051000Y-155449000D01*
X91051000Y-157551000D01*
X91051000Y-157551000D01*
G37*
G36*
X141051000Y-157051000D02*
G01*
X138949000Y-157051000D01*
X138949000Y-154949000D01*
X141051000Y-154949000D01*
X141051000Y-157051000D01*
X141051000Y-157051000D01*
G37*
G36*
X111051000Y-157051000D02*
G01*
X108949000Y-157051000D01*
X108949000Y-154949000D01*
X111051000Y-154949000D01*
X111051000Y-157051000D01*
X111051000Y-157051000D01*
G37*
G36*
X121051000Y-157051000D02*
G01*
X118949000Y-157051000D01*
X118949000Y-154949000D01*
X121051000Y-154949000D01*
X121051000Y-157051000D01*
X121051000Y-157051000D01*
G37*
G36*
X131051000Y-157051000D02*
G01*
X128949000Y-157051000D01*
X128949000Y-154949000D01*
X131051000Y-154949000D01*
X131051000Y-157051000D01*
X131051000Y-157051000D01*
G37*
G36*
X51051000Y-157051000D02*
G01*
X48949000Y-157051000D01*
X48949000Y-154949000D01*
X51051000Y-154949000D01*
X51051000Y-157051000D01*
X51051000Y-157051000D01*
G37*
G36*
X61051000Y-157051000D02*
G01*
X58949000Y-157051000D01*
X58949000Y-154949000D01*
X61051000Y-154949000D01*
X61051000Y-157051000D01*
X61051000Y-157051000D01*
G37*
G36*
X151051000Y-157051000D02*
G01*
X148949000Y-157051000D01*
X148949000Y-154949000D01*
X151051000Y-154949000D01*
X151051000Y-157051000D01*
X151051000Y-157051000D01*
G37*
G36*
X71051000Y-157051000D02*
G01*
X68949000Y-157051000D01*
X68949000Y-154949000D01*
X71051000Y-154949000D01*
X71051000Y-157051000D01*
X71051000Y-157051000D01*
G37*
G36*
X157051000Y-151051000D02*
G01*
X154949000Y-151051000D01*
X154949000Y-148949000D01*
X157051000Y-148949000D01*
X157051000Y-151051000D01*
X157051000Y-151051000D01*
G37*
G36*
X45051000Y-151051000D02*
G01*
X42949000Y-151051000D01*
X42949000Y-148949000D01*
X45051000Y-148949000D01*
X45051000Y-151051000D01*
X45051000Y-151051000D01*
G37*
G36*
X45051000Y-141051000D02*
G01*
X42949000Y-141051000D01*
X42949000Y-138949000D01*
X45051000Y-138949000D01*
X45051000Y-141051000D01*
X45051000Y-141051000D01*
G37*
G36*
X157051000Y-141051000D02*
G01*
X154949000Y-141051000D01*
X154949000Y-138949000D01*
X157051000Y-138949000D01*
X157051000Y-141051000D01*
X157051000Y-141051000D01*
G37*
G36*
X45051000Y-131051000D02*
G01*
X42949000Y-131051000D01*
X42949000Y-128949000D01*
X45051000Y-128949000D01*
X45051000Y-131051000D01*
X45051000Y-131051000D01*
G37*
G36*
X157051000Y-131051000D02*
G01*
X154949000Y-131051000D01*
X154949000Y-128949000D01*
X157051000Y-128949000D01*
X157051000Y-131051000D01*
X157051000Y-131051000D01*
G37*
G36*
X45051000Y-121051000D02*
G01*
X42949000Y-121051000D01*
X42949000Y-118949000D01*
X45051000Y-118949000D01*
X45051000Y-121051000D01*
X45051000Y-121051000D01*
G37*
G36*
X157051000Y-121051000D02*
G01*
X154949000Y-121051000D01*
X154949000Y-118949000D01*
X157051000Y-118949000D01*
X157051000Y-121051000D01*
X157051000Y-121051000D01*
G37*
G36*
X45051000Y-111051000D02*
G01*
X42949000Y-111051000D01*
X42949000Y-108949000D01*
X45051000Y-108949000D01*
X45051000Y-111051000D01*
X45051000Y-111051000D01*
G37*
G36*
X157051000Y-111051000D02*
G01*
X154949000Y-111051000D01*
X154949000Y-108949000D01*
X157051000Y-108949000D01*
X157051000Y-111051000D01*
X157051000Y-111051000D01*
G37*
G36*
X45051000Y-101051000D02*
G01*
X42949000Y-101051000D01*
X42949000Y-98949000D01*
X45051000Y-98949000D01*
X45051000Y-101051000D01*
X45051000Y-101051000D01*
G37*
G36*
X157051000Y-101051000D02*
G01*
X154949000Y-101051000D01*
X154949000Y-98949000D01*
X157051000Y-98949000D01*
X157051000Y-101051000D01*
X157051000Y-101051000D01*
G37*
G36*
X45051000Y-91051000D02*
G01*
X42949000Y-91051000D01*
X42949000Y-88949000D01*
X45051000Y-88949000D01*
X45051000Y-91051000D01*
X45051000Y-91051000D01*
G37*
G36*
X157051000Y-91051000D02*
G01*
X154949000Y-91051000D01*
X154949000Y-88949000D01*
X157051000Y-88949000D01*
X157051000Y-91051000D01*
X157051000Y-91051000D01*
G37*
G36*
X45051000Y-81051000D02*
G01*
X42949000Y-81051000D01*
X42949000Y-78949000D01*
X45051000Y-78949000D01*
X45051000Y-81051000D01*
X45051000Y-81051000D01*
G37*
G36*
X157051000Y-81051000D02*
G01*
X154949000Y-81051000D01*
X154949000Y-78949000D01*
X157051000Y-78949000D01*
X157051000Y-81051000D01*
X157051000Y-81051000D01*
G37*
G36*
X45051000Y-71051000D02*
G01*
X42949000Y-71051000D01*
X42949000Y-68949000D01*
X45051000Y-68949000D01*
X45051000Y-71051000D01*
X45051000Y-71051000D01*
G37*
G36*
X157051000Y-71051000D02*
G01*
X154949000Y-71051000D01*
X154949000Y-68949000D01*
X157051000Y-68949000D01*
X157051000Y-71051000D01*
X157051000Y-71051000D01*
G37*
G36*
X157051000Y-61051000D02*
G01*
X154949000Y-61051000D01*
X154949000Y-58949000D01*
X157051000Y-58949000D01*
X157051000Y-61051000D01*
X157051000Y-61051000D01*
G37*
G36*
X45051000Y-61051000D02*
G01*
X42949000Y-61051000D01*
X42949000Y-58949000D01*
X45051000Y-58949000D01*
X45051000Y-61051000D01*
X45051000Y-61051000D01*
G37*
G36*
X157051000Y-51051000D02*
G01*
X154949000Y-51051000D01*
X154949000Y-48949000D01*
X157051000Y-48949000D01*
X157051000Y-51051000D01*
X157051000Y-51051000D01*
G37*
G36*
X45051000Y-51051000D02*
G01*
X42949000Y-51051000D01*
X42949000Y-48949000D01*
X45051000Y-48949000D01*
X45051000Y-51051000D01*
X45051000Y-51051000D01*
G37*
G36*
X51051000Y-45051000D02*
G01*
X48949000Y-45051000D01*
X48949000Y-42949000D01*
X51051000Y-42949000D01*
X51051000Y-45051000D01*
X51051000Y-45051000D01*
G37*
G36*
X61051000Y-45051000D02*
G01*
X58949000Y-45051000D01*
X58949000Y-42949000D01*
X61051000Y-42949000D01*
X61051000Y-45051000D01*
X61051000Y-45051000D01*
G37*
G36*
X71051000Y-45051000D02*
G01*
X68949000Y-45051000D01*
X68949000Y-42949000D01*
X71051000Y-42949000D01*
X71051000Y-45051000D01*
X71051000Y-45051000D01*
G37*
G36*
X113551000Y-45051000D02*
G01*
X111449000Y-45051000D01*
X111449000Y-42949000D01*
X113551000Y-42949000D01*
X113551000Y-45051000D01*
X113551000Y-45051000D01*
G37*
G36*
X81051000Y-45051000D02*
G01*
X78949000Y-45051000D01*
X78949000Y-42949000D01*
X81051000Y-42949000D01*
X81051000Y-45051000D01*
X81051000Y-45051000D01*
G37*
G36*
X88551000Y-45051000D02*
G01*
X86449000Y-45051000D01*
X86449000Y-42949000D01*
X88551000Y-42949000D01*
X88551000Y-45051000D01*
X88551000Y-45051000D01*
G37*
G36*
X131051000Y-45051000D02*
G01*
X128949000Y-45051000D01*
X128949000Y-42949000D01*
X131051000Y-42949000D01*
X131051000Y-45051000D01*
X131051000Y-45051000D01*
G37*
G36*
X141051000Y-45051000D02*
G01*
X138949000Y-45051000D01*
X138949000Y-42949000D01*
X141051000Y-42949000D01*
X141051000Y-45051000D01*
X141051000Y-45051000D01*
G37*
G36*
X151051000Y-45051000D02*
G01*
X148949000Y-45051000D01*
X148949000Y-42949000D01*
X151051000Y-42949000D01*
X151051000Y-45051000D01*
X151051000Y-45051000D01*
G37*
G36*
X121051000Y-44551000D02*
G01*
X118949000Y-44551000D01*
X118949000Y-42449000D01*
X121051000Y-42449000D01*
X121051000Y-44551000D01*
X121051000Y-44551000D01*
G37*
G36*
X76051000Y-39551000D02*
G01*
X73949000Y-39551000D01*
X73949000Y-37449000D01*
X76051000Y-37449000D01*
X76051000Y-39551000D01*
X76051000Y-39551000D01*
G37*
G36*
X66051000Y-39551000D02*
G01*
X63949000Y-39551000D01*
X63949000Y-37449000D01*
X66051000Y-37449000D01*
X66051000Y-39551000D01*
X66051000Y-39551000D01*
G37*
G36*
X56051000Y-39551000D02*
G01*
X53949000Y-39551000D01*
X53949000Y-37449000D01*
X56051000Y-37449000D01*
X56051000Y-39551000D01*
X56051000Y-39551000D01*
G37*
G36*
X45051000Y-39551000D02*
G01*
X42949000Y-39551000D01*
X42949000Y-37449000D01*
X45051000Y-37449000D01*
X45051000Y-39551000D01*
X45051000Y-39551000D01*
G37*
G36*
X88551000Y-39551000D02*
G01*
X86449000Y-39551000D01*
X86449000Y-37449000D01*
X88551000Y-37449000D01*
X88551000Y-39551000D01*
X88551000Y-39551000D01*
G37*
G36*
X157051000Y-39551000D02*
G01*
X154949000Y-39551000D01*
X154949000Y-37449000D01*
X157051000Y-37449000D01*
X157051000Y-39551000D01*
X157051000Y-39551000D01*
G37*
G36*
X146051000Y-39551000D02*
G01*
X143949000Y-39551000D01*
X143949000Y-37449000D01*
X146051000Y-37449000D01*
X146051000Y-39551000D01*
X146051000Y-39551000D01*
G37*
G36*
X136051000Y-39551000D02*
G01*
X133949000Y-39551000D01*
X133949000Y-37449000D01*
X136051000Y-37449000D01*
X136051000Y-39551000D01*
X136051000Y-39551000D01*
G37*
G36*
X126051000Y-39551000D02*
G01*
X123949000Y-39551000D01*
X123949000Y-37449000D01*
X126051000Y-37449000D01*
X126051000Y-39551000D01*
X126051000Y-39551000D01*
G37*
G36*
X113551000Y-39551000D02*
G01*
X111449000Y-39551000D01*
X111449000Y-37449000D01*
X113551000Y-37449000D01*
X113551000Y-39551000D01*
X113551000Y-39551000D01*
G37*
M02*
